<svg width="22" height="22" viewBox="0 0 22 22" fill="none" xmlns="http://www.w3.org/2000/svg">
<path fill-rule="evenodd" clip-rule="evenodd" d="M11.2297 7.79199C10.3451 7.79199 9.62549 8.51158 9.62549 9.39708C9.62549 10.2817 10.3451 11.0003 11.2297 11.0003C12.1142 11.0003 12.8338 10.2817 12.8338 9.39708C12.8338 8.51158 12.1142 7.79199 11.2297 7.79199ZM11.2297 12.3753C9.58699 12.3753 8.25049 11.0397 8.25049 9.39708C8.25049 7.75349 9.58699 6.41699 11.2297 6.41699C12.8723 6.41699 14.2088 7.75349 14.2088 9.39708C14.2088 11.0397 12.8723 12.3753 11.2297 12.3753Z" fill="#7B4BE1"/>
<mask id="mask0_1757_308" style="mask-type:alpha" maskUnits="userSpaceOnUse" x="3" y="1" width="16" height="19">
<path fill-rule="evenodd" clip-rule="evenodd" d="M3.66675 1.8335H18.7913V19.7085H3.66675V1.8335Z" fill="white"/>
</mask>
<g mask="url(#mask0_1757_308)">
<path fill-rule="evenodd" clip-rule="evenodd" d="M11.2288 3.2085C7.81693 3.2085 5.04126 6.01075 5.04126 9.45375C5.04126 13.8345 10.1966 18.1025 11.2288 18.3298C12.2609 18.1016 17.4163 13.8336 17.4163 9.45375C17.4163 6.01075 14.6406 3.2085 11.2288 3.2085ZM11.2288 19.7085C9.58426 19.7085 3.66626 14.6192 3.66626 9.45374C3.66626 5.25175 7.05884 1.8335 11.2288 1.8335C15.3987 1.8335 18.7913 5.25175 18.7913 9.45374C18.7913 14.6192 12.8733 19.7085 11.2288 19.7085Z" fill="#7B4BE1"/>
</g>
</svg>
