<svg width="22" height="22" viewBox="0 0 22 22" fill="none" xmlns="http://www.w3.org/2000/svg">
<path d="M18.3333 3.6665H3.66659C2.65825 3.6665 1.84242 4.4915 1.84242 5.49984L1.83325 16.4998C1.83325 17.5082 2.65825 18.3332 3.66659 18.3332H18.3333C19.3416 18.3332 20.1666 17.5082 20.1666 16.4998V5.49984C20.1666 4.4915 19.3416 3.6665 18.3333 3.6665ZM17.4166 16.4998H4.58325C4.07909 16.4998 3.66659 16.0873 3.66659 15.5832V7.33317L10.0283 11.3115C10.6241 11.6873 11.3758 11.6873 11.9716 11.3115L18.3333 7.33317V15.5832C18.3333 16.0873 17.9208 16.4998 17.4166 16.4998ZM10.9999 10.0832L3.66659 5.49984H18.3333L10.9999 10.0832Z" fill="#7B4BE1"/>
</svg>
