<svg width="25" height="24" viewBox="0 0 25 24" fill="none" xmlns="http://www.w3.org/2000/svg">
<path d="M12.5 14.1699C10.37 14.1699 8.63 12.4399 8.63 10.2999C8.63 8.15994 10.37 6.43994 12.5 6.43994C14.63 6.43994 16.37 8.16994 16.37 10.3099C16.37 12.4499 14.63 14.1699 12.5 14.1699ZM12.5 7.93994C11.2 7.93994 10.13 8.99994 10.13 10.3099C10.13 11.6199 11.19 12.6799 12.5 12.6799C13.81 12.6799 14.87 11.6199 14.87 10.3099C14.87 8.99994 13.8 7.93994 12.5 7.93994Z" fill="#31373E"/>
<path d="M12.5 22.76C11.02 22.76 9.53 22.2 8.37 21.09C5.42 18.25 2.16 13.72 3.39 8.33C4.5 3.44 8.77 1.25 12.5 1.25C12.5 1.25 12.5 1.25 12.51 1.25C16.24 1.25 20.51 3.44 21.62 8.34C22.84 13.73 19.58 18.25 16.63 21.09C15.47 22.2 13.98 22.76 12.5 22.76ZM12.5 2.75C9.59 2.75 5.85 4.3 4.86 8.66C3.78 13.37 6.74 17.43 9.42 20C11.15 21.67 13.86 21.67 15.59 20C18.26 17.43 21.22 13.37 20.16 8.66C19.16 4.3 15.41 2.75 12.5 2.75Z" fill="#31373E"/>
</svg>
