<svg width="120" height="120" viewBox="0 0 120 120" fill="none" xmlns="http://www.w3.org/2000/svg">
<path d="M60 113.75C30.35 113.75 6.25 89.65 6.25 60C6.25 30.35 30.35 6.25 60 6.25C89.65 6.25 113.75 30.35 113.75 60C113.75 89.65 89.65 113.75 60 113.75ZM60 13.75C34.5 13.75 13.75 34.5 13.75 60C13.75 85.5 34.5 106.25 60 106.25C85.5 106.25 106.25 85.5 106.25 60C106.25 34.5 85.5 13.75 60 13.75Z" fill="#5727A3"/>
<path d="M52.8992 77.9C51.8992 77.9 50.9492 77.5 50.2492 76.8L36.0992 62.65C34.6492 61.2 34.6492 58.8 36.0992 57.35C37.5492 55.9 39.9492 55.9 41.3992 57.35L52.8992 68.85L78.5992 43.15C80.0492 41.7 82.4492 41.7 83.8992 43.15C85.3492 44.6 85.3492 47 83.8992 48.45L55.5492 76.8C54.8492 77.5 53.8992 77.9 52.8992 77.9Z" fill="#5727A3"/>
</svg>
