<svg width="20" height="16" viewBox="0 0 20 16" fill="none" xmlns="http://www.w3.org/2000/svg">
<path d="M6.29091 15.9998C7.82649 16.0093 9.34871 15.7185 10.7693 15.1444C12.1898 14.5702 13.4805 13.7241 14.5663 12.6551C15.6521 11.5861 16.5116 10.3155 17.0948 8.91692C17.678 7.51837 17.9733 6.01975 17.9636 4.50797V3.97992C18.7596 3.40577 19.4486 2.70022 20 1.89457C19.2505 2.2173 18.4574 2.43134 17.6455 2.53002C18.5063 2.02504 19.1522 1.23018 19.4636 0.292516C18.6614 0.766366 17.7817 1.09948 16.8636 1.27702C16.2454 0.628469 15.4273 0.198591 14.5359 0.0538963C13.6445 -0.0907982 12.7295 0.057757 11.9325 0.476576C11.1355 0.895396 10.5009 1.56113 10.1269 2.37078C9.75293 3.18042 9.6604 4.08884 9.86364 4.95547C8.23275 4.87666 6.63701 4.46055 5.18032 3.73425C3.72364 3.00794 2.43867 1.98772 1.40909 0.740016C0.88993 1.62712 0.73257 2.6753 0.968872 3.67233C1.20518 4.66936 1.81748 5.54073 2.68182 6.11002C2.04419 6.08581 1.42132 5.91411 0.863636 5.60882V5.65357C0.85797 6.58064 1.1752 7.48162 1.76246 8.20635C2.34971 8.93108 3.17152 9.43577 4.09091 9.63632C3.49785 9.79336 2.87663 9.81782 2.27273 9.70792C2.5389 10.4986 3.04698 11.1888 3.72731 11.6839C4.40765 12.179 5.2269 12.4548 6.07273 12.4735C4.62656 13.6195 2.82917 14.2504 0.972727 14.2635C0.64723 14.2542 0.322497 14.2273 0 14.1829C1.87905 15.3615 4.06291 15.9829 6.29091 15.9729" fill="#31373E"/>
</svg>
