<svg width="89" height="88" viewBox="0 0 89 88" fill="none" xmlns="http://www.w3.org/2000/svg">
<path d="M70.9204 87.7303C66.8129 87.7303 62.946 86.3898 59.7322 83.8463C59.1651 83.4166 59.062 82.6089 59.5088 82.059C59.9557 81.4918 60.7634 81.4059 61.3133 81.8527C64.0803 84.0182 67.3972 85.1524 70.9204 85.1524C79.4618 85.1524 86.4222 78.1921 86.4222 69.6506C86.4222 61.1092 79.4618 54.1488 70.9204 54.1488C67.3972 54.1488 64.0803 55.3003 61.3305 57.4657C60.7634 57.9126 59.9557 57.8094 59.526 57.2595C59.0792 56.6923 59.1823 55.8846 59.7322 55.4549C62.9288 52.9114 66.8129 51.5709 70.9204 51.5709C80.8883 51.5709 89.0001 59.6827 89.0001 69.6506C89.0001 79.6185 80.8883 87.7303 70.9204 87.7303Z" fill="#31373E"/>
<path d="M68.6185 76.9813C67.3639 76.9813 66.0578 76.5345 64.9922 75.469C63.7548 74.2487 63.119 73.4582 62.7065 71.4646C62.569 70.76 63.0158 70.0897 63.7033 69.935C64.4079 69.7976 65.0782 70.2444 65.2328 70.9318C65.5078 72.238 65.7828 72.6161 66.7968 73.63C67.8795 74.7128 69.3231 74.5237 70.1996 73.905C70.6293 73.5957 71.5745 72.702 70.8527 71.1896C69.8559 69.0929 69.3919 67.7696 69.2544 66.6181C69.0825 65.2604 69.77 63.8856 71.0417 63.0091C72.4166 62.0638 74.1696 61.9435 75.5788 62.6997C78.1911 64.1262 78.5348 66.5838 78.5864 67.065C78.6551 67.7696 78.1224 68.4055 77.4178 68.4742C76.7131 68.543 76.0772 68.0102 76.0085 67.3056C75.9913 67.1509 75.8366 65.7932 74.3243 64.9855C73.654 64.6246 72.9322 64.8308 72.4682 65.1401C72.0041 65.4495 71.7292 65.9135 71.7807 66.3088C71.901 67.3571 72.5541 68.8008 73.1556 70.0725C74.204 72.2895 73.6368 74.6096 71.6776 76.0017C70.8355 76.6204 69.7528 76.9813 68.6185 76.9813Z" fill="#31373E"/>
<path d="M64.4311 77.3004C64.1046 77.3004 63.7781 77.1801 63.5203 76.9223C63.0219 76.4239 63.0219 75.599 63.5203 75.1006L64.9811 73.6398C65.4795 73.1414 66.3044 73.1414 66.8028 73.6398C67.3012 74.1382 67.3012 74.9631 66.8028 75.4615L65.342 76.9223C65.0842 77.1801 64.7577 77.3004 64.4311 77.3004Z" fill="#31373E"/>
<path d="M75.9136 65.8186C75.587 65.8186 75.2605 65.6983 75.0027 65.4405C74.5043 64.9421 74.5043 64.1172 75.0027 63.6188L76.3604 62.2611C76.8588 61.7627 77.6837 61.7627 78.1821 62.2611C78.6805 62.7595 78.6805 63.5844 78.1821 64.0828L76.8244 65.4405C76.5666 65.6983 76.2401 65.8186 75.9136 65.8186Z" fill="#31373E"/>
<path d="M60.5199 30.1467C59.8153 30.1467 59.231 29.5624 59.231 28.8578V22.3786C59.231 21.674 59.8153 21.0897 60.5199 21.0897H61.8776C63.9228 21.0897 65.2117 19.7664 65.7273 18.5118C66.2429 17.2744 66.2773 15.4183 64.8164 13.9747L54.8829 4.0583C53.2674 2.44282 50.6208 2.44282 48.9881 4.0583L39.0546 13.9747C37.5937 15.4183 37.6281 17.2744 38.1437 18.5118C38.6593 19.7492 39.931 21.0897 41.9934 21.0897H43.3511C44.0557 21.0897 44.64 21.674 44.64 22.3786V28.5484C44.64 29.2531 44.0557 29.8374 43.3511 29.8374C42.6464 29.8374 42.0621 29.2531 42.0621 28.5484V23.6676H41.9934C39.2092 23.6676 36.8204 22.0693 35.7548 19.5086C34.6893 16.9307 35.2564 14.1293 37.2157 12.1529L47.1492 2.23658C49.7787 -0.392883 54.058 -0.392883 56.6874 2.23658L66.621 12.1529C68.6146 14.1121 69.1645 16.9307 68.099 19.5086C67.0334 22.0693 64.6446 23.6676 61.8604 23.6676H61.7917V28.8578C61.8089 29.5624 61.2417 30.1467 60.5199 30.1467Z" fill="#5727A3"/>
<path d="M60.5223 87.7355H43.3534C42.6488 87.7355 42.0645 87.1511 42.0645 86.4465C42.0645 85.7419 42.6488 85.1576 43.3534 85.1576H59.2333V34.0119C59.2333 33.3073 59.8176 32.7229 60.5223 32.7229C61.2269 32.7229 61.8112 33.3073 61.8112 34.0119V86.4465C61.8112 87.1683 61.2269 87.7355 60.5223 87.7355Z" fill="#5727A3"/>
<path d="M47.8402 87.7372H30.6714C29.9668 87.7372 29.3824 87.1529 29.3824 86.4482V81.808C29.3824 81.1034 29.9668 80.519 30.6714 80.519C31.376 80.519 31.9603 81.1034 31.9603 81.808V85.1593H46.5513V47.5562C46.5513 46.8516 47.1356 46.2672 47.8402 46.2672H49.1979C51.2431 46.2672 52.532 44.9439 53.0476 43.6893C53.5632 42.4519 53.5976 40.5958 52.1368 39.1522L42.2032 29.2187C40.5877 27.6032 37.9411 27.6032 36.3084 29.2187L26.3749 39.1522C24.9141 40.5958 24.9484 42.4519 25.464 43.6893C25.9796 44.9267 27.2685 46.2672 29.3137 46.2672H30.6714C31.376 46.2672 31.9603 46.8516 31.9603 47.5562V57.5069C31.9603 58.2115 31.376 58.7959 30.6714 58.7959C29.9668 58.7959 29.3824 58.2115 29.3824 57.5069V48.8452H29.3137C26.5295 48.8452 24.1407 47.2468 23.0752 44.6861C22.0096 42.1254 22.5768 39.3069 24.536 37.3305L34.4695 27.4141C37.099 24.7847 41.3783 24.7847 44.0078 27.4141L44.2484 27.6548L53.9585 37.3477C55.9349 39.2897 56.4848 42.1082 55.4193 44.6689C54.3538 47.2297 51.9649 48.828 49.1808 48.828H49.112V86.431C49.1292 87.17 48.5621 87.7372 47.8402 87.7372Z" fill="#5727A3"/>
<path d="M19.0856 87.7424C9.11767 87.7424 1.00586 79.6306 1.00586 69.6627C1.00586 66.0021 2.08858 62.4618 4.16809 59.4542C4.56337 58.8699 5.37112 58.7152 5.95544 59.1277C6.53977 59.5229 6.69444 60.3307 6.28198 60.915C4.51181 63.4929 3.58377 66.5177 3.58377 69.6627C3.58377 78.2042 10.5441 85.1645 19.0856 85.1645C27.627 85.1645 34.5874 78.2042 34.5874 69.6627C34.5874 61.1212 27.627 54.1609 19.0856 54.1609C15.5796 54.1609 12.2799 55.2952 9.53014 57.4434C8.963 57.8903 8.15526 57.7872 7.7256 57.22C7.27877 56.6529 7.38188 55.8451 7.94902 55.4155C11.1456 52.9063 14.9953 51.583 19.0856 51.583C29.0535 51.583 37.1653 59.6948 37.1653 69.6627C37.1653 79.6306 29.0535 87.7424 19.0856 87.7424Z" fill="#31373E"/>
<path d="M18.7912 77.9678C17.1757 77.9678 16.1789 77.8131 14.5462 76.7476C13.9447 76.3523 13.7901 75.5618 14.1681 74.9602C14.5634 74.3587 15.354 74.2041 15.9555 74.5821C17.0726 75.3211 17.5194 75.3899 18.9802 75.3727C20.5098 75.3555 21.4035 74.2212 21.5753 73.1729C21.6613 72.6401 21.6956 71.3512 20.1145 70.784C17.9147 70.0107 16.6601 69.4091 15.7493 68.6873C14.6837 67.8452 14.1853 66.3844 14.4775 64.872C14.7868 63.2222 15.9383 61.916 17.4679 61.452C20.3208 60.5927 22.3143 62.0879 22.6924 62.3972C23.2252 62.8613 23.2939 63.669 22.8471 64.219C22.4003 64.7689 21.5753 64.8377 21.0254 64.3908C20.9051 64.2877 19.8224 63.4456 18.2069 63.944C17.4851 64.1674 17.107 64.8205 17.0038 65.3704C16.9007 65.9204 17.0382 66.436 17.3476 66.6766C18.1897 67.3296 19.6505 67.8968 20.991 68.378C23.2939 69.2029 24.5313 71.2481 24.1361 73.6197C23.7752 75.768 21.9019 77.9506 19.0146 77.985C18.9287 77.9678 18.8599 77.9678 18.7912 77.9678Z" fill="#31373E"/>
<path d="M18.994 80.0219C18.2894 80.0219 17.7051 79.4375 17.7051 78.7329V76.6706C17.7051 75.9659 18.2894 75.3816 18.994 75.3816C19.6987 75.3816 20.283 75.9659 20.283 76.6706V78.7329C20.283 79.4375 19.6987 80.0219 18.994 80.0219Z" fill="#31373E"/>
<path d="M18.994 63.7842C18.2894 63.7842 17.7051 63.1999 17.7051 62.4952V60.5876C17.7051 59.8829 18.2894 59.2986 18.994 59.2986C19.6987 59.2986 20.283 59.8829 20.283 60.5876V62.4952C20.283 63.1999 19.6987 63.7842 18.994 63.7842Z" fill="#31373E"/>
<path d="M26.5953 25.1967C24.8938 25.1967 23.2784 24.1655 22.6253 22.5156L20.8207 18.0301C20.3739 16.9302 20.4083 15.6928 20.9067 14.6272C21.4051 13.5617 22.3331 12.7368 23.4674 12.3587L24.5157 12.015C25.6328 11.654 26.8702 11.7572 27.9186 12.3415C28.9497 12.9086 29.7059 13.9054 29.9981 15.0397L31.1839 19.7315C31.6995 21.8969 30.4621 24.1483 28.331 24.8357L27.9014 24.9732C27.4717 25.1279 27.0249 25.1967 26.5953 25.1967ZM25.8219 14.3694C25.65 14.3694 25.461 14.4038 25.2891 14.4554L24.2408 14.7991C23.7939 14.9538 23.433 15.2631 23.2268 15.6928C23.0206 16.1224 23.0206 16.6036 23.1924 17.0505L24.997 21.5532C25.3235 22.3781 26.2515 22.8078 27.1108 22.5328L27.5405 22.3953C28.3826 22.1204 28.881 21.2267 28.6576 20.3502L27.4717 15.6584C27.3514 15.1944 27.0593 14.8163 26.6468 14.5757C26.389 14.4554 26.114 14.3694 25.8219 14.3694Z" fill="#31373E"/>
<path d="M15.9861 32.4691C15.0581 32.4691 14.13 32.177 13.3567 31.5583L9.54137 28.5851C8.61332 27.8633 8.01181 26.7633 7.90869 25.5947C7.80558 24.4089 8.20086 23.2402 8.99142 22.3637L9.73042 21.5388C10.521 20.6623 11.6553 20.1467 12.8411 20.1123C14.0269 20.0952 15.1784 20.5592 16.0033 21.4185L19.3546 24.8729C20.9185 26.4884 20.9701 29.0491 19.4749 30.7161L19.1656 31.0427C18.3406 31.9879 17.1548 32.4691 15.9861 32.4691ZM12.9098 22.6903C12.8927 22.6903 12.8926 22.6903 12.8755 22.6903C12.3943 22.7074 11.9646 22.8965 11.6381 23.2574L10.8991 24.0823C10.5725 24.4432 10.435 24.8901 10.4694 25.3713C10.5038 25.8525 10.7444 26.265 11.1225 26.5571L14.9378 29.5303C15.6424 30.0803 16.6564 29.9943 17.2579 29.3241L17.5501 28.9975C18.1516 28.3273 18.1344 27.3133 17.4985 26.6774L14.13 23.2058C13.8207 22.8621 13.3739 22.6903 12.9098 22.6903Z" fill="#31373E"/>
<path d="M10.0689 43.8917C9.87981 43.8917 9.67358 43.8745 9.46734 43.8574L4.67244 43.1871C3.50378 43.0152 2.43825 42.3794 1.76799 41.3997C1.09774 40.4373 0.839946 39.2171 1.08055 38.0657L1.30397 36.9829C1.54457 35.8315 2.26639 34.8175 3.28037 34.1988C4.29434 33.5801 5.53174 33.4254 6.66602 33.752L11.3234 35.0753C13.4889 35.6596 14.8122 37.8594 14.3482 40.042L14.2623 40.4889C13.8498 42.4825 12.0624 43.8917 10.0689 43.8917ZM5.51455 36.1408C5.2052 36.1408 4.91304 36.2267 4.63806 36.3814C4.2256 36.622 3.95062 37.0173 3.84751 37.4813L3.62409 38.5812C3.52097 39.0453 3.62409 39.5265 3.89906 39.9046C4.17404 40.2998 4.58651 40.5404 5.05053 40.6092L9.84544 41.2794C10.7219 41.3997 11.564 40.8154 11.7531 39.9389L11.839 39.5093C12.0281 38.6328 11.4953 37.7563 10.636 37.5157L5.97858 36.1924C5.8239 36.158 5.66923 36.1408 5.51455 36.1408Z" fill="#31373E"/>
</svg>
