<svg width="90" height="90" viewBox="0 0 90 90" fill="none" xmlns="http://www.w3.org/2000/svg">
<path d="M59.2031 89.1028H30.7969C28.5117 89.1028 26.6484 87.2395 26.6484 84.9543V77.7122C26.6484 74.3723 29.373 71.6477 32.7129 71.6477H41.748C42.4687 71.6477 43.0664 72.2454 43.0664 72.9661C43.0664 73.6868 42.4687 74.2844 41.748 74.2844H32.7129C30.8145 74.2844 29.2852 75.8313 29.2852 77.7122V84.9543C29.2852 85.7805 29.9531 86.4661 30.7969 86.4661H59.2031C60.0293 86.4661 60.7148 85.7805 60.7148 84.9543V77.7122C60.7148 75.8137 59.168 74.2844 57.2871 74.2844H48.2519C47.5312 74.2844 46.9336 73.6868 46.9336 72.9661C46.9336 72.2454 47.5312 71.6477 48.2519 71.6477H57.2871C60.6269 71.6477 63.3516 74.3723 63.3516 77.7122V84.9543C63.3516 87.2571 61.4883 89.1028 59.2031 89.1028Z" fill="#31373E"/>
<path d="M49.5 68.2375H40.5C37.125 68.2375 34.3652 65.4954 34.3652 62.1028V54.9836C34.3652 54.7375 34.4355 54.509 34.5586 54.2981L37.8105 48.9192C38.5313 47.7063 39.8672 46.968 41.2734 46.968H48.7266C50.1328 46.968 51.4687 47.7239 52.1895 48.9192L55.4414 54.2981C55.5645 54.509 55.6348 54.7375 55.6348 54.9836V62.1028C55.6348 65.4954 52.875 68.2375 49.5 68.2375ZM37.002 55.3528V62.1028C37.002 64.0364 38.5664 65.6008 40.5 65.6008H49.5C51.4336 65.6008 52.998 64.0364 52.998 62.1028V55.3528L49.9395 50.2903C49.6934 49.8684 49.2188 49.6047 48.7266 49.6047H41.2734C40.7813 49.6047 40.3242 49.8684 40.0605 50.2903L37.002 55.3528Z" fill="#31373E"/>
<path d="M54.3164 56.302C53.5957 56.302 52.998 55.7043 52.998 54.9836V46.634C52.998 45.2102 51.8379 44.0325 50.3965 44.0325H39.6035C38.1797 44.0325 37.002 45.1926 37.002 46.634V54.9836C37.002 55.7043 36.4043 56.302 35.6836 56.302C34.9629 56.302 34.3652 55.7043 34.3652 54.9836V46.634C34.3652 43.7512 36.7207 41.3958 39.6035 41.3958H50.3965C53.2793 41.3958 55.6348 43.7512 55.6348 46.634V54.9836C55.6348 55.7219 55.0371 56.302 54.3164 56.302Z" fill="#31373E"/>
<path d="M45 78.2571C44.5957 78.2571 44.2266 78.0813 43.9805 77.7649L40.7285 73.7922C40.5352 73.5637 40.4297 73.2649 40.4297 72.9661V66.9192C40.4297 66.1985 41.0273 65.6008 41.748 65.6008H48.252C48.9727 65.6008 49.5703 66.1985 49.5703 66.9192V72.9661C49.5703 73.2649 49.4648 73.5637 49.2715 73.7922L46.0195 77.7649C45.7734 78.0813 45.4043 78.2571 45 78.2571ZM43.0664 72.4915L45 74.8469L46.9336 72.4915V68.2375H43.0664V72.4915Z" fill="#31373E"/>
<path d="M28.1602 77.677H21.5859C20.8652 77.677 20.2676 77.0793 20.2676 76.3586C20.2676 75.6379 20.8652 75.0403 21.5859 75.0403H28.1602C28.8809 75.0403 29.4785 75.6379 29.4785 76.3586C29.4785 77.0793 28.8984 77.677 28.1602 77.677Z" fill="#31373E"/>
<path d="M32.5547 89.1028H4.14844C1.86328 89.1028 0 87.2395 0 84.9543V81.1047C0 77.7473 2.72461 75.0403 6.06445 75.0403H15.0996C15.8203 75.0403 16.418 75.6379 16.418 76.3586C16.418 77.0793 15.8203 77.677 15.0996 77.677H6.06445C4.16602 77.677 2.63672 79.2239 2.63672 81.1047V84.9543C2.63672 85.7805 3.30469 86.4661 4.14844 86.4661H32.5547C33.2754 86.4661 33.873 87.0637 33.873 87.7844C33.873 88.5051 33.2754 89.1028 32.5547 89.1028Z" fill="#31373E"/>
<path d="M22.8516 71.6477H13.8516C10.4766 71.6477 7.7168 68.9055 7.7168 65.5129V56.4778C7.7168 55.7571 8.31445 55.1594 9.03516 55.1594H27.668C28.3887 55.1594 28.9863 55.7571 28.9863 56.4778C28.9863 57.1985 28.3887 57.7961 27.668 57.7961H10.3535V65.5129C10.3535 67.4465 11.918 69.011 13.8516 69.011H22.8516C24.7852 69.011 26.3496 67.4465 26.3496 65.5129V62.6477C26.3496 61.927 26.9473 61.3293 27.668 61.3293C28.3887 61.3293 28.9863 61.927 28.9863 62.6477V65.5129C28.9863 68.8879 26.2266 71.6477 22.8516 71.6477Z" fill="#31373E"/>
<path d="M27.668 57.7961H9.03516C8.31445 57.7961 7.7168 57.1985 7.7168 56.4778V51.6965C7.7168 48.8137 10.0723 46.4583 12.9551 46.4583H23.748C26.6309 46.4583 28.9863 48.8137 28.9863 51.6965V56.4778C28.9863 57.1985 28.3887 57.7961 27.668 57.7961ZM10.3535 55.1594H26.3496V51.6965C26.3496 50.2727 25.1895 49.095 23.748 49.095H12.9551C11.5312 49.095 10.3535 50.2551 10.3535 51.6965V55.1594Z" fill="#31373E"/>
<path d="M18.3516 80.7708C18.0176 80.7708 17.7012 80.6477 17.4375 80.4016L14.1855 77.3254C13.9219 77.0793 13.7812 76.7278 13.7812 76.3762V70.3293C13.7812 69.6086 14.3789 69.011 15.0996 69.011H21.6035C22.3242 69.011 22.9219 69.6086 22.9219 70.3293V76.3762C22.9219 76.7454 22.7812 77.0793 22.5176 77.3254L19.2656 80.4016C19.002 80.6477 18.668 80.7708 18.3516 80.7708ZM16.418 75.7961L18.3516 77.6243L20.2852 75.7961V71.6477H16.418V75.7961Z" fill="#31373E"/>
<path d="M85.8516 89.1029H77.8184C77.0977 89.1029 76.5 88.5052 76.5 87.7845C76.5 87.0638 77.0977 86.4662 77.8184 86.4662H85.8516C86.6777 86.4662 87.3633 85.7806 87.3633 84.9545V81.1049C87.3633 79.2064 85.8164 77.6771 83.9355 77.6771H74.9004C74.1797 77.6771 73.582 77.0795 73.582 76.3588C73.582 75.6381 74.1797 75.0404 74.9004 75.0404H83.9355C87.2754 75.0404 90 77.765 90 81.1049V84.9545C90 87.2572 88.1367 89.1029 85.8516 89.1029Z" fill="#31373E"/>
<path d="M71.6484 89.1029H57.4453C56.7246 89.1029 56.127 88.5052 56.127 87.7845C56.127 87.0638 56.7246 86.4662 57.4453 86.4662H71.6484C72.3691 86.4662 72.9668 87.0638 72.9668 87.7845C72.9668 88.5052 72.3867 89.1029 71.6484 89.1029Z" fill="#31373E"/>
<path d="M68.3965 77.6771H61.8223C61.1016 77.6771 60.5039 77.0795 60.5039 76.3588C60.5039 75.6381 61.1016 75.0404 61.8223 75.0404H68.3965C69.1172 75.0404 69.7148 75.6381 69.7148 76.3588C69.7148 77.0795 69.1348 77.6771 68.3965 77.6771Z" fill="#31373E"/>
<path d="M76.1484 71.6478H67.1484C63.7734 71.6478 61.0137 68.9056 61.0137 65.513V60.0462C61.0137 59.6244 61.207 59.2376 61.541 58.9916L68.291 53.929C68.6602 53.6478 69.1699 53.5951 69.5918 53.7708L81.4746 58.8333C81.9668 59.0443 82.2832 59.5189 82.2832 60.0462V65.513C82.2832 68.888 79.541 71.6478 76.1484 71.6478ZM63.6504 60.6966V65.513C63.6504 67.4466 65.2148 69.0111 67.1484 69.0111H76.1484C78.082 69.0111 79.6465 67.4466 79.6465 65.513V60.9076L69.2578 56.4955L63.6504 60.6966Z" fill="#31373E"/>
<path d="M71.6484 80.7709C71.3145 80.7709 70.998 80.6478 70.7344 80.4017L67.5 77.3256C67.2363 77.0795 67.0957 76.7279 67.0957 76.3763V70.3295C67.0957 69.6088 67.6934 69.0111 68.4141 69.0111H74.918C75.6387 69.0111 76.2363 69.6088 76.2363 70.3295V76.3763C76.2363 76.7455 76.0957 77.0795 75.832 77.3256L72.5801 80.4017C72.2988 80.6478 71.9824 80.7709 71.6484 80.7709ZM69.7148 75.7963L71.6484 77.6244L73.582 75.7963V71.6478H69.7148V75.7963Z" fill="#31373E"/>
<path d="M44.9997 89.1028H40.6579C40.0603 89.1028 39.5153 88.6809 39.3747 88.1008L35.7185 73.2825C35.613 72.8957 35.7185 72.4739 35.9646 72.1575C36.2106 71.8411 36.5974 71.6477 37.0017 71.6477H41.7653C42.1696 71.6477 42.5388 71.8235 42.7849 72.1399L46.0368 76.1125C46.2302 76.3411 46.3356 76.6399 46.3356 76.9387V87.7844C46.3181 88.5227 45.7204 89.1028 44.9997 89.1028ZM41.695 86.4661H43.6813V77.4133L41.1325 74.2844H38.6716L41.695 86.4661Z" fill="#31373E"/>
<path d="M49.3418 89.1028H45C44.2793 89.1028 43.6816 88.5051 43.6816 87.7844V76.9387C43.6816 76.6399 43.7871 76.3411 43.9805 76.1125L47.2324 72.1399C47.4785 71.8411 47.8652 71.6477 48.252 71.6477H53.0156C53.4199 71.6477 53.8066 71.8411 54.0527 72.1575C54.2988 72.4739 54.3867 72.8957 54.2988 73.2825L50.625 88.1008C50.4844 88.6985 49.957 89.1028 49.3418 89.1028ZM46.3184 86.4661H48.3047L51.3105 74.2844H48.8672L46.3184 77.4133V86.4661Z" fill="#31373E"/>
<path d="M71.6484 89.1028C70.9277 89.1028 70.3301 88.5051 70.3301 87.7844V79.4524C70.3301 78.7317 70.9277 78.134 71.6484 78.134C72.3691 78.134 72.9668 78.7317 72.9668 79.4524V87.7844C72.9668 88.5227 72.3867 89.1028 71.6484 89.1028Z" fill="#31373E"/>
<path d="M18.3516 89.1028C17.6309 89.1028 17.0332 88.5051 17.0332 87.7844V79.4524C17.0332 78.7317 17.6309 78.134 18.3516 78.134C19.0723 78.134 19.6699 78.7317 19.6699 79.4524V87.7844C19.6699 88.5227 19.0723 89.1028 18.3516 89.1028Z" fill="#31373E"/>
<path d="M62.332 61.3645C62.1387 61.3645 61.9277 61.3118 61.7344 61.2239C61.2949 60.9954 61.0137 60.5383 61.0137 60.0461V53.2258C61.0137 49.4993 64.0547 46.4583 67.7812 46.4583H79.5234C82.6699 46.4583 85.2363 49.0247 85.2363 52.1711C85.2363 52.9446 85.0781 53.7004 84.7793 54.4036L82.1777 60.5559C82.0371 60.8723 81.791 61.136 81.457 61.259C81.1406 61.3821 80.7715 61.3821 80.4551 61.2415L69.2754 56.4778L63.1406 61.0833C62.8945 61.2766 62.6133 61.3645 62.332 61.3645ZM69.082 53.6653C69.2578 53.6653 69.4336 53.7004 69.5918 53.7708L80.2617 58.3059L82.3535 53.3665C82.5117 52.9797 82.5996 52.5754 82.5996 52.1711C82.5996 50.4661 81.2109 49.095 79.5234 49.095H67.7812C65.5137 49.095 63.6504 50.9407 63.6504 53.2258V57.4094L68.291 53.929C68.5195 53.7532 68.8008 53.6653 69.082 53.6653Z" fill="#31373E"/>
<path d="M21.4634 37.4231C20.7427 37.4231 20.022 37.1419 19.4771 36.5969L17.3677 34.4876C16.2603 33.3801 16.2603 31.6047 17.3677 30.4973L32.52 15.345C34.2075 13.6575 36.9321 13.6575 38.6021 15.345L45.7563 22.4993L56.8306 11.4251L53.8247 8.4192C53.0161 7.61061 52.7349 6.43288 53.0864 5.34303C53.438 4.25319 54.3521 3.46217 55.4771 3.28639L69.9438 0.930922C70.8931 0.772719 71.8774 1.08913 72.563 1.77467C73.2485 2.46022 73.5649 3.44459 73.4067 4.39381L71.0513 18.8606C70.8755 19.9856 70.0845 20.8997 68.9946 21.2512C67.9048 21.6028 66.727 21.3215 65.9185 20.513L62.9302 17.5071L57.4106 23.0266C56.9009 23.5364 56.0571 23.5364 55.5474 23.0266C55.0376 22.5169 55.0376 21.6731 55.5474 21.1633L61.9985 14.7122C62.5083 14.2024 63.352 14.2024 63.8618 14.7122L67.8169 18.6672C67.9575 18.8079 68.1157 18.7903 68.2036 18.7551C68.3091 18.72 68.4321 18.6497 68.4673 18.4387L70.8228 3.97194C70.8579 3.79616 70.77 3.69069 70.7173 3.63795C70.6645 3.58522 70.5591 3.49733 70.3833 3.53248L55.8989 5.88795C55.7056 5.92311 55.6177 6.04616 55.5825 6.15163C55.5474 6.25709 55.5474 6.4153 55.6704 6.53834L59.6255 10.4758C59.8716 10.7219 60.0122 11.0559 60.0122 11.4075C60.0122 11.759 59.8716 12.093 59.6255 12.3391L46.688 25.2766C46.1782 25.7864 45.3345 25.7864 44.8247 25.2766L36.7388 17.1907C36.0884 16.5403 35.0337 16.5403 34.3833 17.1907L19.231 32.343C19.1606 32.4133 19.1606 32.5364 19.231 32.6067L21.3403 34.7161C21.4106 34.7864 21.5337 34.7864 21.604 34.7161L34.647 21.6731C35.1567 21.1633 36.0005 21.1633 36.5103 21.6731L44.5962 29.759C45.2466 30.4094 46.3013 30.4094 46.9517 29.759L51.188 25.5227C51.6978 25.013 52.5415 25.013 53.0513 25.5227C53.561 26.0325 53.561 26.8762 53.0513 27.386L48.8149 31.6223C47.1274 33.3098 44.4028 33.3098 42.7329 31.6223L35.5786 24.468L23.4673 36.5794C22.9048 37.1419 22.1841 37.4231 21.4634 37.4231Z" fill="#5727A3"/>
<path d="M26.1914 7.18872H21.4629C20.7422 7.18872 20.1445 6.59106 20.1445 5.87036C20.1445 5.14966 20.7422 4.552 21.4629 4.552H26.1914C26.9121 4.552 27.5098 5.14966 27.5098 5.87036C27.5098 6.59106 26.9121 7.18872 26.1914 7.18872Z" fill="#5727A3"/>
<path d="M23.8184 9.54419C23.0977 9.54419 22.5 8.94653 22.5 8.22583V3.49731C22.5 2.77661 23.0977 2.17896 23.8184 2.17896C24.5391 2.17896 25.1367 2.77661 25.1367 3.49731V8.22583C25.1367 8.96411 24.5566 9.54419 23.8184 9.54419Z" fill="#5727A3"/>
<path d="M16.3652 16.2766C16.2773 16.2766 16.1895 16.259 16.1016 16.259C16.0137 16.2415 15.9434 16.2239 15.8555 16.1887C15.7852 16.1536 15.6973 16.1184 15.627 16.0657C15.5566 16.0129 15.4863 15.9602 15.4336 15.9075C15.1875 15.6614 15.0469 15.3274 15.0469 14.9758C15.0469 14.8879 15.0469 14.8 15.0645 14.7122C15.082 14.6243 15.0996 14.5364 15.1348 14.4661C15.1699 14.3957 15.2051 14.3079 15.2578 14.2375C15.3105 14.1672 15.3633 14.0969 15.416 14.0442C15.7324 13.7454 16.1719 13.6047 16.6113 13.6926C16.6992 13.7102 16.7871 13.7278 16.8574 13.7629C16.9277 13.7981 17.0156 13.8332 17.0859 13.886C17.1562 13.9387 17.2266 13.9915 17.2793 14.0442C17.3496 14.0969 17.4023 14.1672 17.4375 14.2375C17.4902 14.3079 17.5254 14.3782 17.5605 14.4661C17.5957 14.554 17.6133 14.6243 17.6309 14.7122C17.6484 14.8 17.6484 14.8879 17.6484 14.9758C17.6484 15.3274 17.5078 15.6614 17.2617 15.9075C17.209 15.9778 17.1387 16.0305 17.0684 16.0657C16.998 16.1184 16.9277 16.1536 16.8398 16.1887C16.752 16.2239 16.6816 16.2415 16.5938 16.259C16.541 16.259 16.4531 16.2766 16.3652 16.2766Z" fill="#5727A3"/>
<path d="M45 61.7336C43.9277 61.7336 43.1719 61.382 43.0488 61.3293L44.1914 58.9562L44.1738 58.9386C44.209 58.9562 44.9824 59.2902 45.8613 58.9211C46.5293 58.6398 47.3027 58.9562 47.584 59.6418C47.8652 60.3273 47.5488 61.0832 46.8633 61.3644C46.1953 61.6281 45.5625 61.7336 45 61.7336Z" fill="#31373E"/>
<path d="M18.3516 66.1633C17.2793 66.1633 16.5234 65.8117 16.4004 65.759L17.543 63.3859H17.5254C17.5605 63.4035 18.3164 63.7375 19.2129 63.3683C19.8809 63.0871 20.6543 63.4035 20.9355 64.089C21.2168 64.757 20.9004 65.5304 20.2148 65.8117C19.5469 66.0578 18.9141 66.1633 18.3516 66.1633Z" fill="#31373E"/>
<path d="M71.666 66.1633C70.5938 66.1633 69.8379 65.8117 69.7148 65.759L70.8574 63.3859H70.8398C70.875 63.4035 71.6309 63.7375 72.5273 63.3683C73.1953 63.0871 73.9687 63.4035 74.25 64.089C74.5312 64.757 74.2148 65.5304 73.5293 65.8117C72.8437 66.0578 72.2109 66.1633 71.666 66.1633Z" fill="#31373E"/>
</svg>
