<svg width="89" height="88" viewBox="0 0 89 88" fill="none" xmlns="http://www.w3.org/2000/svg">
<path d="M5.59988 53.3677C4.63762 53.3677 3.7269 52.8522 3.26296 51.9586C-0.500176 44.7417 -1.01567 36.3047 1.78519 28.177C4.58606 20.0665 10.394 13.1417 18.178 8.63968C25.962 4.15485 34.8801 2.57398 43.2827 4.20639C51.7197 5.8388 58.782 10.5126 63.1466 17.3688C63.8683 18.4857 63.6277 19.9806 62.5795 20.8226C59.2288 23.5719 55.7406 26.2525 52.2009 28.7784C51.7025 29.1393 51.0839 29.3111 50.4653 29.2596L47.0115 29.0018C46.9771 29.0018 46.96 29.019 46.9428 29.0534L46.4616 31.7511C46.3414 32.4728 45.9118 33.1086 45.3104 33.5038C39.1588 37.5247 32.6979 41.2535 26.1339 44.5699C25.4809 44.8963 24.7248 44.9479 24.0375 44.6901L21.46 43.7622C21.4256 43.7451 21.3913 43.7622 21.3913 43.7966L19.8963 46.924C19.6214 47.491 19.1746 47.9378 18.6076 48.1783C14.6555 49.9826 10.583 51.6665 6.52777 53.1958C6.21847 53.2989 5.90918 53.3677 5.59988 53.3677ZM36.7016 6.1481C30.7905 6.1481 24.8279 7.76333 19.4496 10.8563C12.2154 15.0318 6.80271 21.4756 4.20803 29.0018C1.63055 36.4594 2.11168 44.1918 5.53115 50.7558C5.54833 50.773 5.56551 50.7902 5.59988 50.773C9.60358 49.2609 13.6073 47.5941 17.5251 45.8242C17.5422 45.8242 17.5422 45.807 17.5594 45.7899L19.0544 42.6625C19.6386 41.4425 21.0476 40.8583 22.3364 41.3222L24.9139 42.2501C24.931 42.2501 24.9482 42.2501 24.9654 42.2501C31.4435 38.9681 37.8185 35.2909 43.9013 31.3216C43.9185 31.3044 43.9185 31.3044 43.9357 31.2872L44.4168 28.5894C44.6574 27.2491 45.8602 26.3212 47.2177 26.4243L50.6715 26.6821C50.6887 26.6821 50.7059 26.6821 50.7059 26.6649C54.1941 24.1905 57.6479 21.5443 60.9471 18.8293C60.9643 18.8122 60.9815 18.7778 60.9643 18.7606C56.9778 12.5059 50.5169 8.22728 42.7844 6.73233C40.7912 6.33712 38.7464 6.1481 36.7016 6.1481Z" fill="#31373E"/>
<path d="M16.1424 12.7255C15.6613 12.7255 15.1973 12.4505 14.974 11.9866L11.5545 4.59779C11.1077 3.63553 11.4686 2.50143 12.3793 1.96875L15.3004 0.284792C16.2283 -0.24789 17.3796 0.00986004 17.981 0.869022L22.6721 7.53612C23.0845 8.12035 22.947 8.91078 22.3628 9.32318C21.7785 9.73558 20.9881 9.59811 20.5757 9.01388L16.1768 2.75918L14.1148 3.94482L17.3281 10.8869C17.6202 11.5398 17.3452 12.2959 16.6923 12.6052C16.5205 12.6911 16.3314 12.7255 16.1424 12.7255Z" fill="#31373E"/>
<path d="M57.3605 71.4631C56.9137 71.4631 56.4842 71.2398 56.2436 70.8102L36.8437 37.2169C36.4829 36.5983 36.7062 35.8079 37.3077 35.4642C37.9263 35.1034 38.7167 35.3268 39.0604 35.9282L58.4774 69.5214C58.8383 70.14 58.6149 70.9305 57.9963 71.2913C57.8073 71.4116 57.5839 71.4631 57.3605 71.4631Z" fill="#31373E"/>
<path d="M49.5121 70.5107C49.0653 70.5107 48.6357 70.2873 48.3951 69.8577L31.3665 40.3713C31.0057 39.7698 31.2291 38.9794 31.8477 38.6186C32.4663 38.2577 33.2567 38.4811 33.6004 39.0825L50.629 68.569C50.9898 69.1876 50.7664 69.978 50.165 70.3217C49.9588 70.4591 49.7354 70.5107 49.5121 70.5107Z" fill="#31373E"/>
<path d="M69.0561 54.2108C64.3651 54.2108 60.5332 50.3961 60.5332 45.6879C60.5332 40.9968 64.3479 37.165 69.0561 37.165C73.7643 37.165 77.579 40.9968 77.579 45.6879C77.579 50.3789 73.7643 54.2108 69.0561 54.2108ZM69.0561 39.7425C65.7741 39.7425 63.1107 42.4059 63.1107 45.6879C63.1107 48.9699 65.7741 51.6333 69.0561 51.6333C72.3381 51.6333 75.0015 48.9699 75.0015 45.6879C75.0015 42.4059 72.3381 39.7425 69.0561 39.7425Z" fill="#5727A3"/>
<path d="M69.0652 64.6119C68.3264 64.6119 67.6562 64.1824 67.3813 63.495L65.5942 59.3367C64.8382 57.5668 62.8277 56.7248 61.0235 57.4465L58.8068 58.3401C58.1195 58.615 57.3463 58.4603 56.8308 57.9277C56.3153 57.4122 56.1434 56.6217 56.4184 55.9516L57.3119 53.7349C58.0336 51.9307 57.1916 49.9374 55.4217 49.1642L51.2634 47.3771C50.5932 47.085 50.1465 46.4149 50.1465 45.6932C50.1465 44.9543 50.5761 44.2842 51.2634 44.0092L55.4217 42.2222C57.1916 41.4661 58.0336 39.4557 57.3119 37.6514L56.4184 35.4348C56.1434 34.7474 56.2981 33.9742 56.8308 33.4415C57.3463 32.926 58.1367 32.7542 58.824 33.0291L61.0407 33.9227C62.8449 34.6443 64.8382 33.8024 65.6114 32.0325L67.3985 27.8741C67.6906 27.204 68.3607 26.7572 69.0824 26.7572C69.8041 26.7572 70.4915 27.1868 70.7664 27.8741L72.5534 32.0325C73.3095 33.8024 75.3199 34.6443 77.1242 33.9227L79.3408 33.0291C80.0282 32.7542 80.8014 32.9088 81.3169 33.4415C81.8324 33.957 82.0042 34.7474 81.7293 35.4176L80.8358 37.6514C80.1141 39.4385 80.9389 41.4489 82.7259 42.205L86.8843 43.992C87.5544 44.2842 88.0012 44.9543 88.0012 45.676C88.0012 46.4149 87.5716 47.085 86.8843 47.36L82.7259 49.1642C80.9389 49.9203 80.1141 51.9307 80.8358 53.7178L81.7293 55.9344C82.0042 56.6217 81.8496 57.395 81.3169 57.9277C80.8014 58.4432 80.011 58.615 79.3408 58.3401L77.1242 57.4465C75.3199 56.7248 73.3267 57.5668 72.5534 59.3367L70.7664 63.495C70.4743 64.1824 69.8041 64.6119 69.0652 64.6119ZM62.3466 54.6113C63.137 54.6113 63.9275 54.7659 64.6835 55.0752C66.1613 55.6938 67.3297 56.8451 67.9655 58.3057L69.0652 60.8832L70.165 58.3057C70.8008 56.8279 71.9692 55.6766 73.447 55.0752C74.9247 54.4566 76.5571 54.4566 78.0521 55.0409L78.6707 55.2986L78.4301 54.68C77.8287 53.1851 77.8459 51.5527 78.4645 50.0749C79.0831 48.5971 80.2344 47.4287 81.6949 46.7929L84.2724 45.6932L81.6949 44.5935C80.2172 43.9577 79.0659 42.7892 78.4645 41.3115C77.8459 39.8337 77.8459 38.1841 78.4301 36.7063L78.6879 36.0877L78.0693 36.3455C76.5743 36.9469 74.9419 36.9297 73.4642 36.3111C71.9864 35.6925 70.8179 34.5413 70.1822 33.0807L69.0824 30.5032L67.9827 33.0807C67.3297 34.5241 66.1613 35.6753 64.6835 36.2939C63.2058 36.9125 61.5562 36.9125 60.0784 36.3283L59.4598 36.0706L59.7176 36.6892C60.319 38.1841 60.3018 39.8165 59.6832 41.2943C59.0646 42.772 57.9133 43.9405 56.4527 44.5763L53.8753 45.676L56.4527 46.7757C57.9305 47.4115 59.0818 48.58 59.6832 50.0577C60.3018 51.5355 60.3018 53.1851 59.7176 54.6628L59.4598 55.2814L60.0784 55.0237C60.8001 54.7659 61.5733 54.6113 62.3466 54.6113Z" fill="#5727A3"/>
<path d="M21.3844 79.1375C21.2985 79.1375 21.2126 79.1375 21.1267 79.1203C21.0408 79.1031 20.9549 79.0859 20.8861 79.0515C20.8002 79.0172 20.7315 78.9828 20.6628 78.9313C20.594 78.8797 20.5253 78.811 20.4737 78.7594C20.2332 78.5189 20.0957 78.1924 20.0957 77.8487C20.0957 77.505 20.2332 77.1786 20.4737 76.938C20.5253 76.8864 20.594 76.8177 20.6628 76.7833C20.7315 76.7318 20.8002 76.6974 20.8861 76.6631C20.972 76.6287 21.0408 76.6115 21.1267 76.5943C21.2985 76.56 21.4704 76.56 21.625 76.5943C21.7109 76.6115 21.7797 76.6287 21.8656 76.6631C21.9515 76.6974 22.0202 76.7318 22.089 76.7833C22.1749 76.8177 22.2436 76.8864 22.2952 76.938C22.3467 76.9895 22.4154 77.0583 22.4498 77.127C22.5014 77.1957 22.5357 77.2645 22.5701 77.3504C22.6045 77.4191 22.6216 77.505 22.6388 77.591C22.6732 77.6769 22.6732 77.7628 22.6732 77.8487C22.6732 77.9346 22.6732 78.0205 22.656 78.1065C22.6388 78.1924 22.6216 78.2783 22.5873 78.347C22.5357 78.4158 22.5014 78.5017 22.4498 78.5704C22.4154 78.6391 22.3467 78.7079 22.2952 78.7594C22.2436 78.811 22.1749 78.8797 22.1061 78.9141C22.0374 78.9656 21.9515 79 21.8828 79.0344C21.7968 79.0687 21.7109 79.1031 21.6422 79.1203C21.5563 79.1375 21.4704 79.1375 21.3844 79.1375Z" fill="#31373E"/>
<path d="M61.9762 82.3128C61.8903 82.3128 61.8044 82.2956 61.7185 82.2784C61.6326 82.2613 61.5467 82.2441 61.4779 82.2097C61.392 82.1753 61.3233 82.141 61.2545 82.0894C61.1858 82.0551 61.1171 81.9863 61.0655 81.9348C60.825 81.6942 60.6875 81.3677 60.6875 81.0241C60.6875 80.9381 60.7047 80.8522 60.7219 80.7663C60.739 80.6804 60.7562 80.5945 60.7906 80.5257C60.825 80.4398 60.8593 80.3711 60.9109 80.3024C60.9452 80.2336 61.014 80.1649 61.0655 80.1133C61.1171 80.0618 61.1858 79.9931 61.2545 79.9587C61.3233 79.9072 61.392 79.8728 61.4779 79.8384C61.5467 79.8041 61.6326 79.7869 61.7185 79.7697C61.8903 79.7353 62.0622 79.7353 62.2168 79.7697C62.3027 79.7869 62.3715 79.8041 62.4574 79.8384C62.5261 79.8728 62.612 79.9072 62.6808 79.9587C62.7667 79.9931 62.8354 80.0618 62.887 80.1133C62.9385 80.1649 63.0072 80.2336 63.0416 80.3024C63.0932 80.3711 63.1275 80.4398 63.1619 80.5257C63.1963 80.6117 63.2134 80.6804 63.2306 80.7663C63.265 80.8522 63.265 80.9381 63.265 81.0241C63.265 81.3677 63.1275 81.6942 62.887 81.9348C62.6464 82.1753 62.3199 82.3128 61.9762 82.3128Z" fill="#31373E"/>
<path d="M68.8864 80.5449C68.5427 80.5449 68.2163 80.4075 67.9757 80.1669C67.9241 80.1153 67.8554 80.0466 67.821 79.9779C67.7695 79.9091 67.7351 79.8404 67.7008 79.7545C67.6664 79.6686 67.6492 79.5998 67.632 79.5139C67.6148 79.428 67.5977 79.3421 67.5977 79.2562C67.5977 79.1703 67.6148 79.0843 67.632 78.9984C67.6492 78.9125 67.6664 78.8266 67.7008 78.7579C67.7351 78.6719 67.7695 78.6032 67.821 78.5345C67.8554 78.4657 67.9241 78.397 67.9757 78.3455C68.2678 78.0534 68.7146 77.9159 69.1441 77.9846C69.2301 78.0018 69.2988 78.019 69.3847 78.0534C69.4534 78.0877 69.5394 78.1221 69.6081 78.1736C69.6768 78.2252 69.7456 78.2939 69.7971 78.3455C69.8487 78.397 69.9174 78.4657 69.9518 78.5345C70.0033 78.6032 70.0377 78.6719 70.072 78.7579C70.1064 78.8266 70.1236 78.9125 70.1408 78.9984C70.158 79.0843 70.158 79.1703 70.158 79.2562C70.158 79.3421 70.158 79.428 70.1408 79.5139C70.1408 79.5827 70.1064 79.6686 70.072 79.7545C70.0377 79.8232 70.0033 79.9091 69.9518 79.9779C69.9174 80.0466 69.8487 80.1153 69.7971 80.1669C69.7456 80.2356 69.6768 80.2872 69.6081 80.3215C69.5394 80.3731 69.4534 80.4075 69.3847 80.4418C69.2988 80.4762 69.2129 80.5106 69.1441 80.5277C69.0582 80.5449 68.9723 80.5449 68.8864 80.5449Z" fill="#31373E"/>
<path d="M28.6618 83.5157C28.5759 83.5157 28.49 83.5157 28.404 83.4985C28.3181 83.4813 28.2322 83.4641 28.1635 83.4298C28.0776 83.3954 28.0088 83.361 27.9401 83.3095C27.8714 83.2579 27.8026 83.1892 27.7511 83.1377C27.5105 82.8971 27.373 82.5706 27.373 82.2269C27.373 81.8833 27.5105 81.5568 27.7511 81.3162C27.8026 81.2647 27.8714 81.1959 27.9401 81.1616C28.0088 81.11 28.0776 81.0757 28.1635 81.0413C28.2322 81.0069 28.3181 80.9897 28.404 80.9726C28.5759 80.9382 28.7477 80.9382 28.9024 80.9726C28.9883 80.9897 29.057 81.0069 29.1429 81.0413C29.2288 81.0757 29.2976 81.11 29.3663 81.1616C29.4522 81.1959 29.521 81.2647 29.5725 81.3162C29.8131 81.5568 29.9505 81.8833 29.9505 82.2269C29.9505 82.5706 29.8131 82.8971 29.5725 83.1377C29.521 83.1892 29.4522 83.2579 29.3835 83.2923C29.3148 83.3439 29.2288 83.3782 29.1601 83.4126C29.0742 83.447 28.9883 83.4813 28.9195 83.4985C28.8336 83.5157 28.7477 83.5157 28.6618 83.5157Z" fill="#31373E"/>
<path d="M39.7243 82.8091C39.6384 82.8091 39.5525 82.792 39.4665 82.792C39.3806 82.7748 39.3119 82.7576 39.226 82.7232C39.1572 82.6889 39.0713 82.6545 39.0026 82.6029C38.9339 82.5514 38.8651 82.4827 38.8136 82.4311C38.573 82.1905 38.4355 81.8641 38.4355 81.5204C38.4355 81.1767 38.573 80.8503 38.8136 80.6097C38.8651 80.5581 38.9339 80.4894 39.0026 80.455C39.0713 80.4035 39.1401 80.3691 39.226 80.3348C39.3119 80.3004 39.3806 80.2832 39.4665 80.266C39.6384 80.2317 39.8102 80.2317 39.9649 80.266C40.0508 80.2832 40.1367 80.3004 40.2054 80.3348C40.2913 80.3691 40.3601 80.4035 40.4288 80.455C40.5147 80.4894 40.5835 80.5581 40.635 80.6097C40.8756 80.8503 41.013 81.1767 41.013 81.5204C41.013 81.8641 40.8756 82.1905 40.635 82.4311C40.5835 82.4827 40.5147 82.5514 40.446 82.5858C40.3773 82.6373 40.2913 82.6717 40.2226 82.706C40.1367 82.7404 40.0508 82.7748 39.982 82.792C39.8961 82.792 39.8102 82.8091 39.7243 82.8091Z" fill="#31373E"/>
<path d="M36.1199 75.6073H26.5831C25.7412 75.6073 25.0195 74.9715 24.8992 74.1295L23.7479 65.0568C23.662 64.3523 24.1603 63.6993 24.8648 63.6134C25.5693 63.5275 26.2223 64.0258 26.3082 64.7303L27.3736 73.0298H35.3466L36.412 64.7131C36.4979 64.0086 37.1337 63.5103 37.8554 63.6134C38.5599 63.6993 39.0582 64.3351 38.9551 65.0568L37.8038 74.1295C37.6835 74.9715 36.9618 75.6073 36.1199 75.6073Z" fill="#31373E"/>
<path d="M37.9264 66.1737H33.2869C32.5824 66.1737 31.9982 65.5895 31.9982 64.885C31.9982 64.1804 32.5824 63.5962 33.2869 63.5962H36.947V61.7061H25.7607V63.5962H27.2728C27.9773 63.5962 28.5616 64.1804 28.5616 64.885C28.5616 65.5895 27.9773 66.1737 27.2728 66.1737H24.7812C23.8877 66.1737 23.166 65.452 23.166 64.5585V60.7438C23.166 59.8503 23.8877 59.1286 24.7812 59.1286H37.9264C38.82 59.1286 39.5417 59.8503 39.5417 60.7438V64.5585C39.5245 65.452 38.8028 66.1737 37.9264 66.1737Z" fill="#31373E"/>
<path d="M72.5008 75.3269C72.3462 75.3269 72.2087 75.2925 72.054 75.241C63.9092 72.2339 52.9119 70.2922 43.9938 70.2922C41.8974 70.2922 39.6121 70.4125 37.2236 70.6187C36.5191 70.6874 35.8833 70.1547 35.8146 69.4502C35.7458 68.7457 36.2785 68.1099 36.983 68.0412C39.4574 67.8178 41.8115 67.6975 43.9938 67.6975C53.1868 67.7147 64.545 69.7252 72.9476 72.8353C73.6177 73.0759 73.9614 73.8148 73.7036 74.4849C73.5146 75.0004 73.0163 75.3269 72.5008 75.3269Z" fill="#31373E"/>
<path d="M86.6973 87.9786H1.29656C0.592043 87.9786 0.0078125 87.3943 0.0078125 86.6898C0.0078125 82.7033 2.75713 79.0948 8.16986 75.9847C13.6685 72.8058 20.6621 70.8812 25.5421 69.8331C26.2295 69.6784 26.9168 70.1252 27.0714 70.8125C27.2261 71.4998 26.7793 72.1872 26.092 72.3418C19.339 73.8024 13.5826 75.83 9.4586 78.2185C5.558 80.4695 3.307 82.8752 2.72277 85.4011H85.2539C84.7556 83.2704 82.8826 80.4867 77.5043 77.6514C76.8685 77.325 76.6279 76.5345 76.9716 75.9159C77.3153 75.2973 78.0885 75.0396 78.7071 75.3833C84.8587 78.6309 87.9689 82.4456 87.9689 86.707C87.9861 87.4115 87.4018 87.9786 86.6973 87.9786Z" fill="#31373E"/>
<path d="M31.7009 61.7122C31.3744 61.7122 31.0479 61.5919 30.7902 61.3341L26.1335 56.6775C25.6352 56.1792 25.6352 55.3544 26.1335 54.856C26.6318 54.3577 27.4566 54.3577 27.9549 54.856L32.6116 59.5127C33.1099 60.011 33.1099 60.8358 32.6116 61.3341C32.3538 61.5919 32.0274 61.7122 31.7009 61.7122Z" fill="#31373E"/>
<path d="M5.23837 24.802C4.72287 24.802 4.24174 24.4927 4.03554 23.9944C3.77779 23.3242 4.10427 22.5854 4.75724 22.3104C16.2528 17.7397 27.0095 11.5193 36.7353 3.85562C37.3023 3.40885 38.1099 3.51195 38.5395 4.06182C38.9863 4.62886 38.8832 5.43648 38.3333 5.86606C28.4186 13.7016 17.4385 20.0422 5.7195 24.7161C5.56485 24.7676 5.39302 24.802 5.23837 24.802Z" fill="#31373E"/>
<path d="M1.75183 44.9012C1.23633 44.9012 0.738014 44.5919 0.548998 44.0764C0.291249 43.4063 0.617731 42.6674 1.28788 42.4097C11.1339 38.6294 20.7221 34.0586 29.8293 28.8005C38.9192 23.5425 47.6827 17.5283 55.8791 10.8956C56.4289 10.4488 57.2365 10.5347 57.6833 11.0846C58.1301 11.6345 58.0442 12.4421 57.4943 12.8889C49.1948 19.6075 40.3282 25.7076 31.118 31.0344C21.9078 36.3612 12.1821 40.9835 2.21577 44.8153C2.06112 44.8669 1.90647 44.9012 1.75183 44.9012Z" fill="#31373E"/>
<path d="M1.4161 37.2133C0.900605 37.2133 0.419474 36.904 0.213275 36.4056C-0.0444735 35.7355 0.282008 34.9966 0.934971 34.7389C13.41 29.7901 25.3867 23.5182 36.5215 16.1122C37.1057 15.717 37.9133 15.8717 38.3085 16.4731C38.7038 17.0573 38.5491 17.8649 37.9649 18.2429C26.6583 25.7692 14.5269 32.1098 1.89723 37.1273C1.74259 37.1961 1.57075 37.2133 1.4161 37.2133Z" fill="#31373E"/>
<path d="M42.2234 15.0325C41.8282 15.0325 41.4158 14.8435 41.1752 14.4827C40.7628 13.8984 40.9003 13.0908 41.4845 12.6784C44.1479 10.7883 46.8113 8.79501 49.3888 6.75021C49.9387 6.30344 50.7635 6.40654 51.1931 6.95641C51.6398 7.50627 51.5367 8.33107 50.9869 8.76065C48.375 10.8226 45.6772 12.8503 42.9623 14.792C42.7389 14.9638 42.4811 15.0325 42.2234 15.0325Z" fill="#31373E"/>
</svg>
