<svg width="88" height="88" viewBox="0 0 88 88" fill="none" xmlns="http://www.w3.org/2000/svg">
<mask id="mask0_789_1136" style="mask-type:luminance" maskUnits="userSpaceOnUse" x="0" y="0" width="88" height="88">
<path d="M0 -7.62939e-06H88V88H0V-7.62939e-06Z" fill="white"/>
</mask>
<g mask="url(#mask0_789_1136)">
<path fill-rule="evenodd" clip-rule="evenodd" d="M2.97199 82.4327L25.122 28.6279L58.1233 61.6301L4.36392 83.7658C3.56739 84.0287 3.02047 84.1441 2.66471 84.1641C2.63265 84.1659 2.60386 84.1669 2.57812 84.1672C2.57862 84.1413 2.57978 84.1123 2.58181 84.08C2.60394 83.7291 2.71927 83.1974 2.97199 82.4327ZM2.59185 84.3556C2.59194 84.3555 2.59143 84.3534 2.59006 84.3497C2.59108 84.3538 2.59177 84.3557 2.59185 84.3556ZM2.39635 84.1542C2.39211 84.1526 2.38977 84.152 2.38966 84.1521C2.38955 84.1522 2.39166 84.153 2.39635 84.1542ZM2.80954 86.7382C3.51183 86.6987 4.32655 86.4955 5.21989 86.1981C5.24811 86.1887 5.276 86.1783 5.30351 86.167L60.8929 63.2779C61.2914 63.1138 61.5816 62.7614 61.6661 62.3387C61.7506 61.9161 61.6183 61.4792 61.3136 61.1744L25.5777 25.4375C25.2729 25.1327 24.836 25.0004 24.4133 25.085C23.9907 25.1695 23.6382 25.4597 23.4742 25.8583L0.570778 81.493C0.559519 81.5204 0.549205 81.5481 0.539853 81.5761C0.254108 82.4335 0.0523215 83.2275 0.00879902 83.9177C-0.0334177 84.5872 0.0587905 85.4193 0.673319 86.0441C1.29079 86.6719 2.12582 86.7766 2.80954 86.7382Z" fill="#31373E"/>
<path fill-rule="evenodd" clip-rule="evenodd" d="M64.181 61.5983C63.5085 62.2658 62.4052 62.2624 61.7411 61.5983L25.1574 25.0137C24.4869 24.3431 24.4866 23.2452 25.1565 22.5743C25.8279 21.907 26.9284 21.9074 27.5991 22.5752C27.5991 22.5753 27.5991 22.5753 27.5992 22.5753L43.9153 38.8286C44.4197 39.331 45.2359 39.3294 45.7383 38.8251C46.2408 38.3207 46.2392 37.5045 45.7348 37.0021L29.4186 20.7487L29.4184 20.7486C27.7413 19.0784 25.0134 19.0785 23.3362 20.7485L23.3342 20.7505C21.6568 22.4282 21.6568 25.1589 23.3342 26.8366L23.3343 26.8366L59.918 63.4213L59.9181 63.4213C61.5918 65.095 64.326 65.0922 66.0021 63.4232L66.006 63.4194C67.6761 61.7423 67.6761 59.0142 66.006 57.3371L66.0041 57.3353L50.0238 41.3547C49.5204 40.8512 48.7042 40.8512 48.2008 41.3546C47.6974 41.8581 47.6974 42.6742 48.2008 43.1777L64.1792 59.1564C64.1794 59.1566 64.1797 59.1569 64.1799 59.1571C64.8469 59.8277 64.8473 60.9273 64.181 61.5983Z" fill="#31373E"/>
<path fill-rule="evenodd" clip-rule="evenodd" d="M52.737 66.2883C53.0506 65.6492 52.7866 64.8769 52.1475 64.5633L16.2653 46.9604C15.6261 46.6468 14.8538 46.9108 14.5403 47.5499C14.2267 48.1891 14.4907 48.9614 15.1298 49.275L51.012 66.8779C51.6511 67.1915 52.4235 66.9275 52.737 66.2883Z" fill="#31373E"/>
<path fill-rule="evenodd" clip-rule="evenodd" d="M34.0473 73.981C34.3607 73.3417 34.0964 72.5695 33.4572 72.2561L24.5803 67.9053C23.9411 67.592 23.1688 67.8562 22.8555 68.4955C22.5422 69.1347 22.8064 69.907 23.4457 70.2203L32.3225 74.5712C32.9618 74.8845 33.734 74.6203 34.0473 73.981ZM19.5528 66.8732C19.8665 66.2341 19.6027 65.4617 18.9636 65.148L10.496 60.9921C9.85688 60.6784 9.0845 60.9422 8.77083 61.5813C8.45715 62.2204 8.72096 62.9928 9.36007 63.3065L17.8277 67.4624C18.4668 67.7761 19.2391 67.5123 19.5528 66.8732Z" fill="#31373E"/>
<path fill-rule="evenodd" clip-rule="evenodd" d="M22.9937 78.5316C23.3071 77.8924 23.043 77.1201 22.4038 76.8067L7.08147 69.2939C6.44224 68.9805 5.66997 69.2446 5.35654 69.8838C5.04312 70.523 5.30723 71.2953 5.94646 71.6087L21.2688 79.1215C21.908 79.435 22.6803 79.1709 22.9937 78.5316Z" fill="#31373E"/>
<path fill-rule="evenodd" clip-rule="evenodd" d="M57.6068 58.7024C57.9204 58.0633 57.6564 57.291 57.0173 56.9774L19.6832 38.6631C19.0441 38.3495 18.2718 38.6135 17.9582 39.2527C17.6447 39.8918 17.9086 40.6642 18.5478 40.9777L55.8818 59.292C56.521 59.6056 57.2933 59.3416 57.6068 58.7024Z" fill="#31373E"/>
<path fill-rule="evenodd" clip-rule="evenodd" d="M61.4893 45.4318C62.0214 45.9048 62.8362 45.8568 63.3092 45.3247C68.0946 39.941 75.1722 33.1901 86.6307 33.901C87.3413 33.9451 87.9531 33.4048 87.9971 32.6943C88.0412 31.9837 87.5009 31.3719 86.7904 31.3278C74.0644 30.5383 66.2628 38.1211 61.3822 43.6119C60.9093 44.144 60.9572 44.9588 61.4893 45.4318Z" fill="#5727A3"/>
<path fill-rule="evenodd" clip-rule="evenodd" d="M38.3239 24.7641C38.7995 25.2939 39.6145 25.3379 40.1443 24.8624C44.4152 21.0287 50.4358 14.8684 50.2331 5.2013C50.2182 4.48953 49.6291 3.92462 48.9173 3.93955C48.2055 3.95447 47.6406 4.54358 47.6555 5.25535C47.8327 13.7028 42.6185 19.1771 38.4221 22.9438C37.8923 23.4193 37.8484 24.2343 38.3239 24.7641Z" fill="#5727A3"/>
<path fill-rule="evenodd" clip-rule="evenodd" d="M53.9565 40.3996C54.481 40.881 55.2964 40.8461 55.7778 40.3216C58.3169 37.5553 61.4637 34.3631 65.299 31.7952C65.8906 31.3991 66.0491 30.5984 65.653 30.0068C65.2569 29.4153 64.4563 29.2568 63.8647 29.6529C59.7684 32.3955 56.4551 35.7711 53.8785 38.5783C53.397 39.1028 53.432 39.9182 53.9565 40.3996Z" fill="#5727A3"/>
<path fill-rule="evenodd" clip-rule="evenodd" d="M47.0854 28.5646C47.5584 29.0967 48.3732 29.1446 48.9053 28.6716C54.5713 23.6351 62.3927 15.585 61.5788 2.46397C61.5347 1.75341 60.9229 1.21311 60.2124 1.25719C59.5018 1.30127 58.9615 1.91303 59.0056 2.6236C59.7409 14.4771 52.7515 21.8032 47.1924 26.7447C46.6603 27.2177 46.6124 28.0325 47.0854 28.5646Z" fill="#5727A3"/>
<path fill-rule="evenodd" clip-rule="evenodd" d="M28.2559 8.12731C28.2559 10.3755 30.0818 12.1934 32.3221 12.1934C34.5687 12.1934 36.3881 10.3739 36.3881 8.12731C36.3881 5.88082 34.5688 4.06109 32.3221 4.06109C30.0817 4.06109 28.2559 5.87926 28.2559 8.12731ZM32.3221 9.61523C31.5026 9.61523 30.834 8.9485 30.834 8.12731C30.834 7.30602 31.5027 6.63922 32.3221 6.63922C33.1447 6.63922 33.81 7.30447 33.81 8.12731C33.81 8.95005 33.1448 9.61523 32.3221 9.61523Z" fill="#5727A3"/>
<path fill-rule="evenodd" clip-rule="evenodd" d="M75.8903 23.5789C75.8905 23.5786 75.8906 23.5783 75.8908 23.578L77.5018 20.3994L80.6804 18.7883C80.6807 18.7882 80.681 18.788 80.6813 18.7879C80.8398 18.7077 81.0512 18.5887 81.239 18.4174C81.4171 18.2551 81.7501 17.8821 81.7501 17.3039C81.7501 16.7255 81.417 16.3526 81.2388 16.1902C81.051 16.019 80.8398 15.9001 80.6812 15.82C80.6808 15.8198 80.6805 15.8196 80.6801 15.8194L77.5018 14.2085L75.8909 11.03C75.8907 11.0297 75.8905 11.0293 75.8904 11.029C75.8102 10.8703 75.6914 10.6594 75.5207 10.4718C75.3587 10.2938 74.9885 9.9628 74.414 9.95943C73.8373 9.95604 73.4626 10.2848 73.2979 10.4634C73.1249 10.651 73.0049 10.8623 72.9244 11.0199L72.9224 11.0238L71.3105 14.2087L68.1326 15.8194C68.1322 15.8196 68.1318 15.8198 68.1314 15.82C67.9722 15.9004 67.7599 16.0201 67.5715 16.193C67.391 16.3585 67.0611 16.7336 67.0645 17.3115C67.0679 17.8849 67.3977 18.2545 67.5739 18.4158C67.7605 18.5866 67.9703 18.7057 68.1274 18.7859L68.1307 18.7875L71.3108 20.3994L72.9227 23.5797L72.9244 23.583C73.0046 23.7402 73.1238 23.95 73.2946 24.1366C73.4559 24.3129 73.8257 24.6427 74.3991 24.6459C74.9768 24.6492 75.3518 24.3194 75.5172 24.139C75.6902 23.9505 75.8099 23.7381 75.8903 23.5789ZM73.5631 22.4643C73.5631 22.4643 73.5635 22.4637 73.5642 22.4626C73.5635 22.4637 73.5631 22.4642 73.5631 22.4643ZM74.4063 20.8042L73.4197 18.8576C73.2958 18.6131 73.0972 18.4145 72.8527 18.2906L70.9062 17.3039L72.8527 16.3173C73.0974 16.1933 73.2962 15.9944 73.4201 15.7497L74.4056 13.8024L75.3929 15.7503C75.5168 15.9948 75.7155 16.1934 75.96 16.3173L77.9064 17.3039L75.96 18.2906C75.7155 18.4145 75.5168 18.6131 75.3929 18.8576L74.4063 20.8042ZM79.5676 16.4601C79.5676 16.4601 79.5672 16.4604 79.5663 16.4609C79.5672 16.4604 79.5677 16.4601 79.5676 16.4601ZM79.5666 18.1471C79.5675 18.1476 79.5679 18.1479 79.5679 18.1479C79.5679 18.1479 79.5675 18.1476 79.5666 18.1471ZM73.5623 12.1421C73.5623 12.1421 73.5626 12.1426 73.5632 12.1435C73.5626 12.1426 73.5623 12.1421 73.5623 12.1421ZM75.247 12.1441C75.247 12.144 75.2467 12.1446 75.246 12.1457C75.2467 12.1446 75.247 12.1441 75.247 12.1441ZM69.246 18.1472C69.246 18.1472 69.2466 18.1469 69.2477 18.1462C69.2465 18.1469 69.246 18.1472 69.246 18.1472ZM69.2503 16.4625C69.2502 16.4625 69.2506 16.4628 69.2515 16.4633C69.2507 16.4628 69.2503 16.4625 69.2503 16.4625ZM75.2477 22.4602C75.2477 22.4601 75.2475 22.4597 75.2469 22.4589C75.2475 22.4598 75.2477 22.4602 75.2477 22.4602Z" fill="#5727A3"/>
<path fill-rule="evenodd" clip-rule="evenodd" d="M74.3926 54.7242C74.3926 56.9694 76.2106 58.7903 78.4538 58.7903C80.7004 58.7903 82.5199 56.9708 82.5199 54.7242C82.5199 52.4777 80.7005 50.658 78.4538 50.658C76.2105 50.658 74.3926 52.4792 74.3926 54.7242ZM78.4538 56.2122C77.6373 56.2122 76.9707 55.5484 76.9707 54.7242C76.9707 53.8999 77.6374 53.2361 78.4538 53.2361C79.2765 53.2361 79.9417 53.9014 79.9417 54.7242C79.9417 55.547 79.2766 56.2122 78.4538 56.2122Z" fill="#5727A3"/>
</g>
</svg>
