<svg width="88" height="92" viewBox="0 0 88 92" fill="none" xmlns="http://www.w3.org/2000/svg">
<path d="M87.8315 33.7319C80.2081 17.2078 63.8372 6.19278 45.3184 5.69315V2.29851C45.3184 1.57009 44.728 0.979553 43.9994 0.979553C43.2708 0.979553 42.6805 1.57009 42.6805 2.29851V5.69298C24.1146 6.19401 7.77258 17.2465 0.167123 33.7319C-0.54529 35.2765 1.16056 36.8179 2.63058 35.9659C8.23351 32.7174 15.4341 34.2887 19.1849 39.6283C19.7733 40.4658 21.1709 40.8112 22.1376 39.4778C24.5008 36.2209 28.2857 34.2811 32.3034 34.2809C36.4791 34.2811 40.3076 36.3726 42.5779 39.6285C42.5867 39.6408 42.675 39.7507 42.6805 39.7571V51.9822C42.427 52.2455 42.1789 52.5147 41.9371 52.7908C38.2612 56.99 36.2369 62.3796 36.2369 67.9668C36.2369 72.8995 37.795 77.4747 40.4435 81.2281C39.9771 82.9353 38.4033 84.1718 36.5969 84.1718C34.3963 84.1718 32.6063 82.3814 32.6063 80.181C32.6063 78.2928 31.0703 76.7568 29.1821 76.7568C27.2938 76.7568 25.7579 78.293 25.7579 80.181C25.7579 86.1578 30.6204 91.0204 36.5972 91.0204C40.1801 91.0204 43.4534 89.2851 45.4671 86.4045C49.3211 89.3013 54.1088 91.0202 59.2903 91.0202C64.8774 91.0202 70.2671 88.9958 74.4661 85.32C78.6249 81.6795 81.3407 76.6754 82.1129 71.2297C82.215 70.5085 81.7135 69.8409 80.9921 69.7385C80.2711 69.6362 79.6032 70.1379 79.5008 70.8593C78.0846 80.8487 69.396 88.3819 59.2903 88.3819C48.0333 88.3819 38.8752 79.2236 38.8752 67.9666C38.8752 57.8609 46.4084 49.1723 56.398 47.7561C57.1193 47.6538 57.6209 46.9864 57.5187 46.2648C57.4164 45.5436 56.7474 45.0419 56.0276 45.144C52.1163 45.6985 48.4327 47.2558 45.3185 49.6303V39.7567C45.3539 39.7154 45.3891 39.6737 45.4205 39.6289C47.7766 36.2803 51.6175 34.2809 55.6961 34.2808C59.7713 34.2808 63.6146 36.2784 65.971 39.6292C66.6533 40.5982 68.1152 40.6225 68.8137 39.628C72.5684 34.2834 79.7709 32.7209 85.3684 35.9659C86.8358 36.817 88.5448 35.2781 87.8315 33.7319ZM42.3006 83.5484C42.6653 83.9458 43.044 84.3306 43.4354 84.7017C41.9237 86.994 39.3836 88.3821 36.5971 88.3821C32.0748 88.3821 28.3958 84.7031 28.3958 80.1808C28.3958 79.7473 28.7484 79.3947 29.1819 79.3947C29.6154 79.3947 29.968 79.7473 29.968 80.1808C29.968 83.8359 32.9416 86.8097 36.5967 86.8097C38.9858 86.8101 41.1331 85.5094 42.3006 83.5484ZM20.0002 36.46C15.8578 32.0355 9.45012 30.4588 3.68663 32.5691C10.0533 20.5771 21.4579 12.1068 34.5309 9.31325C27.0026 15.328 22.4281 27.1155 20.0002 36.46ZM42.6805 35.7432C37.2249 30.6445 29.003 30.3285 23.2272 34.6604C26.086 24.7604 32.5693 9.71052 42.6805 8.3986V35.7432ZM45.3184 35.7485V8.3986C55.4367 9.71369 61.9019 24.7239 64.7716 34.6604C59.0674 30.3522 50.8098 30.6121 45.3184 35.7485ZM67.9986 36.46C65.5705 27.1153 60.9941 15.3265 53.4678 9.31325C66.5409 12.1068 77.9453 20.577 84.312 32.5693C78.5619 30.4635 72.1507 32.0255 67.9986 36.46Z" fill="#31373E"/>
<path d="M69.245 62.7512H64.5045V58.0105C64.5045 57.1197 63.7798 56.3948 62.8889 56.3948H55.6886C54.798 56.3948 54.0729 57.1196 54.0729 58.0105V62.7512H49.3324C48.4419 62.7512 47.7168 63.4759 47.7168 64.3668V71.5669C47.7168 72.4576 48.4415 73.1825 49.3324 73.1825H54.0729V77.923C54.0731 78.8139 54.7978 79.5387 55.6886 79.5387H62.8889C63.7794 79.5387 64.5045 78.8139 64.5045 77.923V73.1825H69.245C70.1356 73.1825 70.8606 72.4578 70.8606 71.5669V64.3668C70.8606 63.4761 70.1359 62.7512 69.245 62.7512ZM68.2227 70.5446H63.4822C62.5916 70.5446 61.8666 71.2693 61.8666 72.1602V76.9008H56.7114V72.1602C56.7114 71.2695 55.9867 70.5446 55.0957 70.5446H50.3556V65.3894H55.0961C55.9867 65.3894 56.7117 64.6647 56.7117 63.7738V59.0333H61.8669V63.7738C61.8669 64.6645 62.5916 65.3894 63.4826 65.3894H68.2231V70.5446H68.2227Z" fill="#5727A3"/>
<path d="M82.1128 64.7038C80.6827 54.6175 72.6398 46.5745 62.5533 45.1442C61.8316 45.0422 61.1647 45.5438 61.062 46.265C60.9599 46.9862 61.4614 47.6537 62.1828 47.7561C71.113 49.0225 78.2345 56.1438 79.5005 65.074C79.5939 65.7324 80.1584 66.208 80.8047 66.208C80.8664 66.208 80.9289 66.2037 80.9917 66.1948C81.7132 66.0926 82.2149 65.4252 82.1128 64.7038Z" fill="#31373E"/>
</svg>
