<svg width="89" height="64" viewBox="0 0 89 64" fill="none" xmlns="http://www.w3.org/2000/svg">
<path d="M41.6113 37.4449C41.1301 37.4449 40.6832 37.1871 40.4598 36.7231C39.0504 33.8872 38.191 30.845 37.9332 27.6825C37.8817 26.9778 38.3973 26.3419 39.1192 26.2903C39.8239 26.2388 40.4598 26.7544 40.5114 27.4762C40.752 30.3122 41.5082 33.045 42.7629 35.5887C43.0723 36.2246 42.8145 36.9981 42.1785 37.3246C41.9895 37.3934 41.8004 37.4449 41.6113 37.4449Z" fill="#5727A3"/>
<path d="M62.9935 50.6768C62.2888 50.6768 61.7044 50.1096 61.7044 49.3877C61.7044 48.683 62.2716 48.0986 62.9935 48.0986C68.9919 48.0815 74.6294 45.744 78.8575 41.4815C83.1028 37.2362 85.4231 31.5815 85.4231 25.5831C85.4231 13.1738 75.334 3.0848 62.9247 3.0848C57.5107 3.0848 52.2685 5.04417 48.1779 8.58477C44.1389 12.091 41.4576 16.9379 40.667 22.1972C40.5639 22.9019 39.9108 23.3831 39.2061 23.28C38.5014 23.1769 38.0202 22.5238 38.1233 21.8191C39.017 15.941 41.9733 10.5613 46.4936 6.64259C51.0482 2.68949 56.8919 0.506691 62.9247 0.506691C76.7606 0.506691 88.0012 11.7644 88.0012 25.5831C88.0012 32.269 85.4059 38.5596 80.6793 43.3034C75.97 48.0471 69.6794 50.6596 62.9935 50.6768Z" fill="#5727A3"/>
<path d="M62.932 26.8806C62.5882 26.8806 62.2617 26.7431 62.021 26.5025L49.7664 14.2822C49.268 13.7838 49.268 12.9588 49.7664 12.4604C50.2648 11.9619 51.0898 11.9619 51.5883 12.4604L63.2585 24.0963L74.0522 20.0744C74.7225 19.8338 75.4616 20.1603 75.7022 20.8306C75.9428 21.501 75.6163 22.24 74.946 22.4806L63.3788 26.8119C63.2413 26.8634 63.0867 26.8806 62.932 26.8806Z" fill="#5727A3"/>
<path d="M64.2879 8.2949C64.2879 9.05115 63.6863 9.65271 62.9301 9.65271C62.1738 9.65271 61.5723 9.05115 61.5723 8.2949C61.5723 7.53866 62.1738 6.9371 62.9301 6.9371C63.6863 6.9371 64.2879 7.53866 64.2879 8.2949Z" fill="#5727A3"/>
<path d="M80.2641 26.9816C79.5078 26.9816 78.9062 26.38 78.9062 25.6238C78.9062 24.8675 79.5078 24.266 80.2641 24.266C81.0203 24.266 81.6219 24.8675 81.6219 25.6238C81.6219 26.38 81.0203 26.9816 80.2641 26.9816Z" fill="#5727A3"/>
<path d="M45.6019 26.9814C44.8457 26.9814 44.2441 26.3799 44.2441 25.6236C44.2441 24.8674 44.8457 24.2658 45.6019 24.2658C46.3582 24.2658 46.9598 24.8674 46.9598 25.6236C46.9598 26.3799 46.3582 26.9814 45.6019 26.9814Z" fill="#5727A3"/>
<path d="M76.1473 14.3293C75.6144 14.8621 74.7551 14.8621 74.2395 14.3293C73.7066 13.7965 73.7066 12.9371 74.2395 12.4215C74.7723 11.8887 75.6316 11.8887 76.1473 12.4215C76.6801 12.9371 76.6801 13.7965 76.1473 14.3293Z" fill="#5727A3"/>
<path d="M74.2297 38.8403C73.6969 38.3075 73.6969 37.4481 74.2297 36.9325C74.7625 36.3996 75.6219 36.3996 76.1375 36.9325C76.6703 37.4653 76.6703 38.3246 76.1375 38.8403C75.6219 39.3731 74.7625 39.3731 74.2297 38.8403Z" fill="#5727A3"/>
<path d="M49.7199 14.3293C49.1871 13.7965 49.1871 12.9371 49.7199 12.4215C50.2527 11.8887 51.1121 11.8887 51.6277 12.4215C52.1605 12.9543 52.1605 13.8137 51.6277 14.3293C51.1121 14.8621 50.2527 14.8621 49.7199 14.3293Z" fill="#31373E"/>
<path d="M66.0481 63.4769H1.40624C0.70156 63.4769 0.117188 62.8926 0.117188 62.1879C0.117188 61.4832 0.70156 60.8988 1.40624 60.8988H66.0481C66.7528 60.8988 67.3372 61.4832 67.3372 62.1879C67.3372 62.8926 66.77 63.4769 66.0481 63.4769Z" fill="#31373E"/>
<path d="M36.1475 63.4762H8.09765C7.39297 63.4762 6.80859 62.8918 6.80859 62.1871V56.8934C6.80859 56.1887 7.39297 55.6044 8.09765 55.6044C8.80233 55.6044 9.38671 56.1887 9.38671 56.8934V60.8981H36.1475C36.8522 60.8981 37.4366 61.4825 37.4366 62.1871C37.4366 62.8918 36.8522 63.4762 36.1475 63.4762Z" fill="#31373E"/>
<path d="M4.13085 52.5209C3.42617 52.5209 2.8418 51.9365 2.8418 51.2318V42.174C2.8418 36.5366 7.43084 31.9303 13.0683 31.9303H27.1964C32.8338 31.9303 37.4229 36.5194 37.4229 42.174V44.1162C37.4229 44.8209 36.8385 45.4053 36.1338 45.4053C35.4291 45.4053 34.8448 44.8209 34.8448 44.1162V42.174C34.8448 37.9459 31.4073 34.5085 27.1964 34.5085H13.0683C8.84021 34.5085 5.41991 37.9459 5.41991 42.174V51.2318C5.41991 51.9365 4.83554 52.5209 4.13085 52.5209Z" fill="#31373E"/>
<path d="M20.1421 29.3405C15.4328 29.3405 11.6172 25.5077 11.6172 20.8155C11.6172 16.1233 15.45 12.2905 20.1421 12.2905C24.8343 12.2905 28.6671 16.1061 28.6671 20.8155C28.6671 25.5248 24.8343 29.3405 20.1421 29.3405ZM20.1421 14.8686C16.8593 14.8686 14.1953 17.5327 14.1953 20.8155C14.1953 24.0983 16.8593 26.7623 20.1421 26.7623C23.4249 26.7623 26.089 24.0983 26.089 20.8155C26.089 17.5327 23.4249 14.8686 20.1421 14.8686Z" fill="#31373E"/>
<path d="M26.2245 58.4274H9.72458C5.92616 58.4274 2.84961 55.3336 2.84961 51.5524V42.7181C2.84961 42.0134 3.43398 41.429 4.13867 41.429C4.84335 41.429 5.42772 42.0134 5.42772 42.7181V51.5524C5.42772 53.9243 7.35271 55.8493 9.72458 55.8493H24.7979C24.2479 53.5633 22.1855 51.8446 19.7277 51.8446H10.9105C10.2058 51.8446 9.62145 51.2602 9.62145 50.5555V43.1134C9.62145 42.4087 10.2058 41.8243 10.9105 41.8243C11.6152 41.8243 12.1996 42.4087 12.1996 43.1134V49.2665H19.7277C24.0245 49.2665 27.5136 52.7555 27.5136 57.0524V57.1383C27.5136 57.843 26.9464 58.4274 26.2245 58.4274Z" fill="#31373E"/>
<path d="M31.8047 57.4227C31.5469 57.4227 31.289 57.354 31.0656 57.1993C29.2094 55.9102 28.1094 53.7962 28.1094 51.5446V42.7103C28.1094 42.0056 28.6937 41.4212 29.3984 41.4212C30.1031 41.4212 30.6875 42.0056 30.6875 42.7103V51.5446C30.6875 52.954 31.375 54.2774 32.5437 55.0681C33.1281 55.4806 33.2656 56.2712 32.8703 56.8555C32.6125 57.2337 32.2 57.4227 31.8047 57.4227Z" fill="#31373E"/>
<path d="M36.1777 45.3263C35.473 45.3263 34.8887 44.7419 34.8887 44.0372V43.1091C34.8887 42.4044 35.473 41.8201 36.1777 41.8201C36.8824 41.8201 37.4668 42.4044 37.4668 43.1091V44.0372C37.4668 44.7419 36.8824 45.3263 36.1777 45.3263Z" fill="#31373E"/>
<path d="M56.3201 63.4762H13.4375C12.7328 63.4762 12.1484 62.8918 12.1484 62.1871C12.1484 61.4825 12.7328 60.8981 13.4375 60.8981H56.3201C57.7123 60.8981 58.8466 59.7981 58.8982 58.4231H43.2405C42.5358 58.4231 41.9514 57.8387 41.9514 57.134C41.9514 56.4294 42.5358 55.845 43.2405 55.845H60.1873C60.892 55.845 61.4763 56.4294 61.4763 57.134V58.32C61.4763 61.1559 59.156 63.4762 56.3201 63.4762Z" fill="#31373E"/>
<path d="M13.4297 60.4478C12.725 60.4478 12.1406 59.8634 12.1406 59.1587V57.1306C12.1406 56.4259 12.725 55.8415 13.4297 55.8415H34.9827C35.6874 55.8415 36.2718 56.4259 36.2718 57.1306C36.2718 57.8353 35.6874 58.4196 34.9827 58.4196H14.7187V59.1587C14.7187 59.8634 14.1344 60.4478 13.4297 60.4478Z" fill="#31373E"/>
<path d="M31.4386 63.4764H16.4683C14.0793 63.4764 12.1543 61.5343 12.1543 59.1624V57.1343C12.1543 56.4296 12.7387 55.8452 13.4434 55.8452H31.4386C32.1433 55.8452 32.7276 56.4296 32.7276 57.1343V62.1874C32.7276 62.8921 32.1433 63.4764 31.4386 63.4764ZM14.7152 58.4233V59.1624C14.7152 60.1249 15.4887 60.8983 16.4512 60.8983H30.1323V58.4233H14.7152Z" fill="#31373E"/>
<path d="M60.1889 58.4233C60.0514 58.4233 59.8967 58.4062 59.742 58.3546C59.0717 58.114 58.728 57.3749 58.9686 56.7046L65.9295 37.4547H39.925L33.2734 55.8452H36.5047C37.2093 55.8452 37.7937 56.4296 37.7937 57.1343C37.7937 57.839 37.2093 58.4233 36.5047 58.4233H31.4344C31.0219 58.4233 30.6266 58.2171 30.3859 57.8733C30.1453 57.5296 30.0937 57.0827 30.2312 56.6874L37.8281 35.7016C38.0171 35.186 38.4984 34.8594 39.0484 34.8594H67.7858C68.1983 34.8594 68.5936 35.0656 68.8342 35.4094C69.0748 35.7531 69.1264 36.2 68.9889 36.5953L61.4092 57.5812C61.203 58.0968 60.7217 58.4233 60.1889 58.4233Z" fill="#31373E"/>
</svg>
