<svg width="211" height="32" viewBox="0 0 211 32" fill="none" xmlns="http://www.w3.org/2000/svg">
<g>
<path d="M10.0606 10.2788C13.0667 10.2788 15.5636 11.8303 16.7515 13.503V10.6909H21.3333V31.5636H18.0364C17.8643 31.5643 17.6937 31.531 17.5346 31.4654C17.3754 31.3999 17.2308 31.3035 17.1091 31.1818C16.9874 31.0601 16.891 30.9155 16.8255 30.7563C16.7599 30.5972 16.7266 30.4267 16.7273 30.2545V28.7515C15.5636 30.4485 13.0667 32 10.0606 32C4.33939 32 0 27.103 0 21.1394C0 15.1758 4.33939 10.2788 10.0606 10.2788ZM10.8848 14.4485C7.17576 14.4485 4.65455 17.3818 4.65455 21.1394C4.65455 24.897 7.15152 27.8303 10.8848 27.8303C14.5939 27.8303 17.1152 24.897 17.1152 21.1394C17.1152 17.3818 14.6182 14.4485 10.8848 14.4485ZM26.5455 10.6909H31.1515V13.5273C32.4121 11.4424 34.7879 10.2788 37.503 10.2788C42.3515 10.2788 45.4788 13.697 45.4788 19.0061V31.5636H42.1818C42.0097 31.5643 41.8392 31.531 41.68 31.4654C41.5209 31.3999 41.3763 31.3035 41.2546 31.1818C41.1329 31.0601 41.0365 30.9155 40.9709 30.7563C40.9054 30.5972 40.872 30.4267 40.8727 30.2545V19.7576C40.8727 16.4606 39.2 14.4485 36.5333 14.4485C33.4788 14.4485 31.1515 16.8242 31.1515 21.2848V31.5636H27.8545C27.6824 31.5643 27.5119 31.531 27.3527 31.4654C27.1936 31.3999 27.049 31.3035 26.9273 31.1818C26.8056 31.0601 26.7092 30.9155 26.6437 30.7563C26.5781 30.5972 26.5447 30.4267 26.5455 30.2545V10.6909ZM59.1758 10.2788C62.1818 10.2788 64.6788 11.8303 65.8667 13.503V0.266667H70.4485V31.5879H67.1515C66.9794 31.5886 66.8089 31.5552 66.6497 31.4897C66.4906 31.4241 66.346 31.3277 66.2243 31.206C66.1026 31.0843 66.0062 30.9397 65.9406 30.7806C65.8751 30.6214 65.8417 30.4509 65.8424 30.2788V28.7758C64.6788 30.4485 62.1576 32 59.1515 32C53.4303 32 49.0909 27.103 49.0909 21.1394C49.1152 15.1758 53.4545 10.2788 59.1758 10.2788ZM60 14.4485C56.2909 14.4485 53.7697 17.3818 53.7697 21.1394C53.7697 24.897 56.2667 27.8303 60 27.8303C63.7091 27.8303 66.2303 24.897 66.2303 21.1394C66.2303 17.3818 63.7091 14.4485 60 14.4485ZM75.6606 10.6909H80.2424V14.4C80.6443 13.2588 81.3884 12.2694 82.3732 11.5666C83.358 10.8638 84.5356 10.4818 85.7455 10.4727C86.3475 10.4713 86.9483 10.5282 87.5394 10.6424V15.3697C86.7971 15.1194 86.0197 14.9885 85.2364 14.9818C82.5939 14.9818 80.2182 17.1879 80.2182 21.3818V31.5636H76.9212C76.7491 31.5643 76.5786 31.531 76.4194 31.4654C76.2603 31.3999 76.1157 31.3035 75.994 31.1818C75.8723 31.0601 75.7759 30.9155 75.7103 30.7563C75.6448 30.5972 75.6114 30.4267 75.6121 30.2545V10.6909H75.6606ZM99.9515 32C93.7697 32 89.0182 27.2 89.0182 21.1394C89.0182 15.0788 93.7697 10.2788 99.9515 10.2788C106.133 10.2788 110.885 15.0788 110.885 21.1394C110.885 27.2 106.133 32 99.9515 32ZM99.9515 27.7333C103.636 27.7333 106.206 24.8485 106.206 21.1394C106.206 17.4303 103.612 14.5455 99.9515 14.5455C96.2424 14.5455 93.6485 17.4303 93.6485 21.1394C93.6485 24.8485 96.2424 27.7333 99.9515 27.7333ZM116.897 6.13333C116.082 6.12806 115.302 5.80199 114.726 5.22575C114.15 4.6495 113.823 3.86946 113.818 3.05455C113.833 2.24475 114.162 1.47252 114.737 0.902089C115.312 0.331654 116.087 0.00801573 116.897 0C117.71 1.21196e-08 118.49 0.323094 119.065 0.898206C119.641 1.47332 119.964 2.25334 119.964 3.06667C119.964 3.88 119.641 4.66002 119.065 5.23513C118.49 5.81024 117.71 6.13333 116.897 6.13333ZM114.618 10.6909H119.2V31.5636H115.927C115.755 31.5643 115.585 31.531 115.425 31.4654C115.266 31.3999 115.122 31.3035 115 31.1818C114.878 31.0601 114.782 30.9155 114.716 30.7563C114.651 30.5972 114.617 30.4267 114.618 30.2545V10.6909ZM133.042 10.2788C136.048 10.2788 138.545 11.8303 139.733 13.503V0.266667H144.315V31.5879H141.018C140.846 31.5886 140.676 31.5552 140.516 31.4897C140.357 31.4241 140.213 31.3277 140.091 31.206C139.969 31.0843 139.873 30.9397 139.807 30.7806C139.742 30.6214 139.708 30.4509 139.709 30.2788V28.7758C138.545 30.4485 136.024 32 133.018 32C127.297 32 122.958 27.103 122.958 21.1394C122.982 15.1758 127.321 10.2788 133.042 10.2788ZM133.891 14.4485C130.182 14.4485 127.661 17.3818 127.661 21.1394C127.661 24.897 130.158 27.8303 133.891 27.8303C137.6 27.8303 140.121 24.897 140.121 21.1394C140.121 17.3818 137.6 14.4485 133.891 14.4485Z" fill="#656A81" fill-opacity="0.5"/>
<path d="M195.006 23.6849C194.546 23.6849 194.096 23.5484 193.713 23.2926C193.33 23.0369 193.032 22.6734 192.856 22.2482C192.68 21.8229 192.634 21.355 192.723 20.9036C192.813 20.4521 193.035 20.0374 193.36 19.712C193.686 19.3865 194.101 19.1648 194.552 19.075C195.003 18.9852 195.471 19.0313 195.897 19.2075C196.322 19.3836 196.685 19.6819 196.941 20.0646C197.197 20.4473 197.333 20.8973 197.333 21.3576C197.333 21.9748 197.088 22.5668 196.652 23.0032C196.215 23.4397 195.623 23.6849 195.006 23.6849ZM169.382 23.6849C168.921 23.6849 168.472 23.5484 168.089 23.2926C167.706 23.0369 167.408 22.6734 167.232 22.2482C167.055 21.8229 167.009 21.355 167.099 20.9036C167.189 20.4521 167.411 20.0374 167.736 19.712C168.062 19.3865 168.476 19.1648 168.928 19.075C169.379 18.9852 169.847 19.0313 170.272 19.2075C170.698 19.3836 171.061 19.6819 171.317 20.0646C171.573 20.4473 171.709 20.8973 171.709 21.3576C171.709 21.9748 171.464 22.5668 171.027 23.0032C170.591 23.4397 169.999 23.6849 169.382 23.6849ZM195.83 9.72122L200.485 1.69698C200.548 1.5871 200.588 1.46591 200.604 1.34034C200.62 1.21478 200.611 1.08733 200.577 0.965307C200.543 0.843286 200.486 0.729101 200.408 0.629312C200.33 0.529523 200.234 0.446095 200.123 0.383822C200.013 0.321549 199.892 0.281658 199.766 0.26644C199.641 0.251221 199.513 0.260976 199.391 0.295144C199.269 0.329311 199.156 0.387218 199.056 0.465538C198.957 0.543857 198.874 0.641047 198.812 0.751522L194.109 8.87273C190.374 7.16582 186.313 6.28911 182.206 6.30304C178.094 6.29297 174.028 7.1608 170.279 8.84849L165.576 0.72728C165.45 0.506771 165.241 0.34515 164.997 0.277763C164.752 0.210376 164.49 0.242708 164.269 0.367688C164.048 0.492667 163.885 0.700124 163.817 0.944686C163.748 1.18925 163.779 1.45101 163.903 1.67273L168.533 9.69698C164.53 11.8805 161.134 15.028 158.653 18.8546C156.173 22.6812 154.686 27.066 154.327 31.6121H210.012C209.664 27.0692 208.184 22.6858 205.707 18.8619C203.23 15.038 199.834 11.8955 195.83 9.72122Z" fill="#656A81" fill-opacity="0.5"/>
</g>
</svg>
