<svg width="129" height="32" viewBox="0 0 129 32" fill="none" xmlns="http://www.w3.org/2000/svg">
<g clip-path="url(#clip0_0_280)">
<path d="M23.1092 21.8404C22.6843 22.82 22.1839 23.7217 21.6032 24.5503C20.8101 25.6809 20.1633 26.4623 19.6629 26.8966C18.8887 27.6095 18.0578 27.9754 17.1679 27.9942C16.5305 27.9942 15.7587 27.8125 14.864 27.4442C13.9647 27.0784 13.1385 26.8966 12.3831 26.8966C11.59 26.8966 10.7402 27.0784 9.83146 27.4442C8.92031 27.8125 8.18855 28.0037 7.62675 28.0226C6.77462 28.058 5.92484 27.6827 5.07506 26.8942C4.53451 26.4221 3.85705 25.6125 3.04504 24.4653C2.17401 23.2402 1.45878 21.8215 0.899348 20.2023C0.302143 18.4555 0 16.7606 0 15.1225C0 13.2435 0.406005 11.6242 1.21801 10.2669C1.85771 9.17639 2.70749 8.31717 3.76971 7.68455C4.83429 7.0543 5.98149 6.73092 7.22075 6.70967C7.89821 6.70967 8.78576 6.91975 9.89047 7.33048C10.9905 7.74357 11.6986 7.95364 12.0078 7.95364C12.2392 7.95364 13.0252 7.70815 14.3542 7.21953C15.6123 6.76631 16.6745 6.57984 17.5455 6.65302C19.9037 6.84421 21.674 7.7719 22.8519 9.44784C20.744 10.7249 19.7007 12.5141 19.7219 14.8109C19.7408 16.6001 20.3899 18.0872 21.6646 19.2675C22.2429 19.8151 22.8873 20.24 23.6049 20.5398C23.4491 20.993 23.2839 21.425 23.1092 21.8404ZM17.7037 0.562945C17.7037 1.96508 17.1915 3.27278 16.1717 4.48372C14.9396 5.92362 13.4501 6.75452 11.8355 6.62469C11.8143 6.4571 11.8025 6.28006 11.8025 6.09359C11.8025 4.7481 12.3879 3.3082 13.4288 2.13031C13.9482 1.5331 14.6091 1.03741 15.4093 0.643196C16.2095 0.253713 16.9649 0.038908 17.6754 0.00115204C17.6943 0.189983 17.7037 0.376471 17.7037 0.562945Z" fill="#656A81" fill-opacity="0.5"/>
<path d="M77.0984 18.1014C77.0984 22.322 73.7961 25.4308 69.7455 25.4308C65.6949 25.4308 62.3925 22.322 62.3925 18.1014C62.3925 13.8525 65.6949 10.7721 69.7455 10.7721C73.7984 10.7721 77.0984 13.8525 77.0984 18.1014ZM73.8811 18.1014C73.8811 15.4648 71.9667 13.659 69.7478 13.659C67.5266 13.659 65.6146 15.4624 65.6146 18.1014C65.6146 20.7121 67.529 22.5439 69.7478 22.5439C71.9667 22.5439 73.8811 20.7098 73.8811 18.1014Z" fill="#656A81" fill-opacity="0.5"/>
<path d="M92.961 18.1014C92.961 22.322 89.6586 25.4308 85.608 25.4308C81.5574 25.4308 78.2551 22.322 78.2551 18.1014C78.2551 13.8549 81.5574 10.7721 85.608 10.7721C89.661 10.7721 92.961 13.8525 92.961 18.1014ZM89.7436 18.1014C89.7436 15.4648 87.8293 13.659 85.6104 13.659C83.3892 13.659 81.4771 15.4624 81.4771 18.1014C81.4771 20.7121 83.3915 22.5439 85.6104 22.5439C87.8293 22.5439 89.7436 20.7098 89.7436 18.1014Z" fill="#656A81" fill-opacity="0.5"/>
<path d="M108.162 11.2159V24.3756C108.162 29.7882 104.971 32 101.197 32C97.6442 32 95.5056 29.623 94.7006 27.6803L97.5025 26.5142C98.0006 27.7063 99.2233 29.1155 101.194 29.1155C103.609 29.1155 105.108 27.626 105.108 24.8194V23.7642H104.995C104.275 24.6542 102.887 25.4308 101.135 25.4308C97.4695 25.4284 94.1129 22.237 94.1129 18.1297C94.1129 13.9918 97.4695 10.7745 101.135 10.7745C102.884 10.7745 104.272 11.5511 104.995 12.4126H105.108V11.2206H108.165L108.162 11.2159ZM105.335 18.1297C105.335 15.5497 103.614 13.6613 101.421 13.6613C99.1997 13.6613 97.3397 15.5474 97.3397 18.1297C97.3397 20.6838 99.1997 22.5439 101.421 22.5439C103.614 22.5439 105.335 20.6838 105.335 18.1297Z" fill="#656A81" fill-opacity="0.5"/>
<path d="M113.202 3.50177V24.9823H110.063V3.50177H113.202Z" fill="#656A81" fill-opacity="0.5"/>
<path d="M125.437 20.5138L127.934 22.1804C127.127 23.3724 125.184 25.4284 121.827 25.4284C117.664 25.4284 114.555 22.2087 114.555 18.0991C114.555 13.7392 117.692 10.7697 121.469 10.7697C125.271 10.7697 127.134 13.7959 127.741 15.4317L128.073 16.265L118.275 20.3226C119.026 21.7932 120.192 22.5439 121.827 22.5439C123.468 22.5439 124.603 21.7366 125.437 20.5138ZM117.746 17.8772L124.297 15.1579C123.935 14.242 122.852 13.6047 121.577 13.6047C119.941 13.6047 117.664 15.0493 117.746 17.8772Z" fill="#656A81" fill-opacity="0.5"/>
<path d="M50.5098 16.1965V13.0854H60.9881C61.0896 13.6283 61.1439 14.268 61.1439 14.962C61.1439 17.2941 60.5065 20.181 58.4505 22.2346C56.4512 24.3166 53.8971 25.426 50.5122 25.426C44.2404 25.426 38.9647 20.3179 38.9647 14.0437C38.9647 7.76954 44.238 2.66143 50.5122 2.66143C53.9821 2.66143 56.4536 4.02343 58.3113 5.79853L56.116 7.99378C54.7847 6.74508 52.9789 5.77256 50.5075 5.77256C45.9281 5.77256 42.3449 9.46437 42.3449 14.0437C42.3449 18.6231 45.9281 22.3149 50.5075 22.3149C53.4793 22.3149 55.1695 21.1228 56.2553 20.037C57.1334 19.1589 57.7117 17.9031 57.9407 16.1871L50.5098 16.1965Z" fill="#656A81" fill-opacity="0.5"/>
<path d="M31.2954 0.00115204L30.9838 31.9976" stroke="#656A81" stroke-opacity="0.5" stroke-width="1.84308" stroke-miterlimit="10"/>
</g>
<defs>
<clipPath id="clip0_0_280">
<rect width="128.073" height="32" fill="white"/>
</clipPath>
</defs>
</svg>
