<svg width="199" height="32" viewBox="0 0 199 32" fill="none" xmlns="http://www.w3.org/2000/svg">
<path d="M115.84 24.2331V9.17715H120.443C122.754 9.17715 124.603 9.87429 125.991 11.2686C127.378 12.6629 128.071 14.4754 128.071 16.704C128.071 18.9326 127.378 20.7451 125.991 22.1394C124.603 23.5337 122.754 24.2309 120.443 24.2309H115.84V24.2331ZM117.774 22.384H120.443C122.181 22.384 123.557 21.8857 124.574 20.8914C125.589 19.8971 126.098 18.5006 126.098 16.7063C126.098 14.9257 125.591 13.5337 124.574 12.5326C123.559 11.5314 122.181 11.0286 120.443 11.0286H117.774V22.384Z" fill="#656A81" fill-opacity="0.5"/>
<path d="M130.626 15.1589C131.621 14.1143 132.889 13.5931 134.43 13.5931C135.97 13.5931 137.239 14.1166 138.233 15.1589C139.227 16.2034 139.726 17.5109 139.726 19.0811C139.726 20.6514 139.227 21.9588 138.233 23.0034C137.239 24.048 135.97 24.5691 134.43 24.5691C132.889 24.5691 131.621 24.048 130.626 23.0034C129.632 21.9588 129.134 20.6514 129.134 19.0811C129.134 17.5109 129.632 16.2034 130.626 15.1589ZM132.066 21.7828C132.731 22.464 133.52 22.8023 134.43 22.8023C135.339 22.8023 136.128 22.4617 136.793 21.7828C137.458 21.104 137.792 20.2034 137.792 19.0811C137.792 17.9589 137.458 17.0583 136.793 16.3794C136.128 15.7006 135.339 15.36 134.43 15.36C133.52 15.36 132.731 15.7006 132.066 16.3794C131.401 17.0606 131.067 17.9611 131.067 19.0811C131.067 20.2034 131.401 21.104 132.066 21.7828Z" fill="#656A81" fill-opacity="0.5"/>
<path d="M141.097 24.2331V13.9291H142.946V15.36H143.031C143.326 14.8686 143.776 14.4526 144.386 14.1097C144.997 13.7668 145.602 13.5954 146.203 13.5954C147.801 13.5954 148.887 14.2537 149.461 15.5726C150.302 14.256 151.499 13.5954 153.054 13.5954C154.272 13.5954 155.191 13.984 155.806 14.7634C156.423 15.5406 156.731 16.5966 156.731 17.9291V24.2377H154.798V18.2194C154.798 17.1817 154.608 16.4457 154.231 16.0114C153.851 15.5771 153.278 15.36 152.507 15.36C151.751 15.36 151.125 15.6823 150.626 16.3268C150.128 16.9714 149.881 17.7074 149.881 18.5348V24.2331H147.947V18.2194C147.947 17.1817 147.758 16.4457 147.381 16.0114C147.001 15.5771 146.427 15.36 145.657 15.36C144.901 15.36 144.274 15.6823 143.776 16.3268C143.278 16.9714 143.031 17.7074 143.031 18.5348V24.2331H141.097Z" fill="#656A81" fill-opacity="0.5"/>
<path d="M161.836 24.5691C160.743 24.5691 159.829 24.2537 159.093 23.6228C158.357 22.992 157.989 22.1577 157.989 21.12C157.989 19.9977 158.423 19.12 159.292 18.48C160.16 17.8423 161.232 17.5223 162.507 17.5223C163.641 17.5223 164.574 17.7326 165.303 18.1531V17.8583C165.303 17.1017 165.042 16.496 164.526 16.0388C164.007 15.584 163.369 15.3554 162.613 15.3554C162.053 15.3554 161.545 15.488 161.088 15.7554C160.633 16.0228 160.32 16.3863 160.153 16.848L158.389 16.0914C158.626 15.4743 159.095 14.9028 159.797 14.3771C160.496 13.8514 161.422 13.5886 162.571 13.5886C163.888 13.5886 164.981 13.9748 165.849 14.7451C166.718 15.5154 167.152 16.6034 167.152 18.0046V24.2286H165.303V22.7977H165.218C164.448 23.9817 163.321 24.5691 161.836 24.5691ZM162.151 22.8046C162.949 22.8046 163.675 22.5074 164.327 21.9108C164.978 21.3143 165.303 20.6103 165.303 19.7966C164.757 19.3486 163.936 19.1246 162.843 19.1246C161.904 19.1246 161.198 19.328 160.72 19.7348C160.245 20.1417 160.005 20.6171 160.005 21.1657C160.005 21.6708 160.222 22.0708 160.656 22.3634C161.093 22.656 161.591 22.8046 162.151 22.8046Z" fill="#656A81" fill-opacity="0.5"/>
<path d="M170.953 11.344C170.688 11.6114 170.366 11.744 169.986 11.744C169.607 11.744 169.285 11.6114 169.02 11.344C168.754 11.0789 168.62 10.7543 168.62 10.3772C168.62 9.99772 168.752 9.67543 169.02 9.41029C169.285 9.14515 169.607 9.01029 169.986 9.01029C170.366 9.01029 170.686 9.14286 170.953 9.41029C171.218 9.67772 171.353 10 171.353 10.3772C171.353 10.7543 171.221 11.0766 170.953 11.344ZM170.953 24.2331H169.02V13.9291H170.953V24.2331Z" fill="#656A81" fill-opacity="0.5"/>
<path d="M174.816 13.9291V15.36H174.901C175.179 14.8686 175.623 14.4526 176.224 14.1097C176.827 13.7668 177.47 13.5954 178.158 13.5954C179.433 13.5954 180.407 13.9886 181.079 14.7726C181.751 15.5588 182.087 16.6103 182.087 17.9268V24.2354H180.153V18.2194C180.153 16.3131 179.305 15.36 177.611 15.36C176.814 15.36 176.162 15.68 175.657 16.3177C175.152 16.9554 174.901 17.696 174.901 18.5371V24.2354H172.967V13.9291H174.816Z" fill="#656A81" fill-opacity="0.5"/>
<path d="M187.717 24.5691C186.567 24.5691 185.618 24.288 184.869 23.728C184.119 23.168 183.568 22.4663 183.218 21.6251L184.942 20.9097C185.488 22.1988 186.421 22.8434 187.737 22.8434C188.338 22.8434 188.832 22.7108 189.218 22.4434C189.605 22.1783 189.797 21.8263 189.797 21.392C189.797 20.72 189.328 20.2629 188.389 20.0251L186.309 19.52C185.65 19.3509 185.026 19.0331 184.439 18.5623C183.851 18.0937 183.557 17.4583 183.557 16.6583C183.557 15.7463 183.959 15.008 184.766 14.4389C185.57 13.872 186.528 13.5863 187.634 13.5863C188.544 13.5863 189.358 13.7943 190.073 14.2057C190.789 14.6194 191.298 15.2114 191.607 15.9817L189.925 16.6766C189.547 15.7646 188.761 15.3097 187.57 15.3097C186.997 15.3097 186.512 15.4286 186.121 15.6663C185.728 15.904 185.534 16.2263 185.534 16.6331C185.534 17.2229 185.989 17.6206 186.901 17.8309L188.939 18.3154C189.906 18.5394 190.619 18.9257 191.083 19.472C191.545 20.0183 191.776 20.6354 191.776 21.3234C191.776 22.2491 191.397 23.0194 190.64 23.6366C189.879 24.2606 188.905 24.5691 187.717 24.5691Z" fill="#656A81" fill-opacity="0.5"/>
<path d="M50.6811 24.5669C45.9954 24.5669 42.0571 20.7474 42.0571 16.0549C42.0571 11.3623 45.9954 7.54285 50.6811 7.54285C53.2731 7.54285 55.1177 8.56 56.5074 9.888L54.8686 11.5269C53.8743 10.592 52.5257 9.86514 50.6811 9.86514C47.2594 9.86514 44.5851 12.6263 44.5851 16.0526C44.5851 19.4789 47.2594 22.2377 50.6811 22.2377C52.9006 22.2377 54.1646 21.3463 54.9737 20.5349C55.6366 19.8697 56.0731 18.9166 56.2377 17.6069H50.6217V15.2869H58.4983C58.5806 15.7029 58.6217 16.2011 58.6217 16.7406C58.6217 18.4846 58.144 20.6446 56.6103 22.1806C55.1177 23.7349 53.2114 24.5669 50.6811 24.5669Z" fill="#656A81" fill-opacity="0.5"/>
<path d="M70.4182 19.0857C70.4182 22.2423 67.9542 24.5669 64.9302 24.5669C61.9062 24.5669 59.4422 22.2423 59.4422 19.0857C59.4422 15.9086 61.9062 13.6046 64.9302 13.6046C67.9542 13.6046 70.4182 15.9086 70.4182 19.0857ZM68.016 19.0857C68.016 17.1131 66.5874 15.7646 64.9302 15.7646C63.2731 15.7646 61.8445 17.1131 61.8445 19.0857C61.8445 21.0377 63.2731 22.4069 64.9302 22.4069C66.5874 22.4069 68.016 21.0354 68.016 19.0857Z" fill="#656A81" fill-opacity="0.5"/>
<path d="M82.3634 19.0857C82.3634 22.2423 79.8994 24.5669 76.8754 24.5669C73.8514 24.5669 71.3874 22.24 71.3874 19.0857C71.3874 15.9086 73.8514 13.6046 76.8754 13.6046C79.8994 13.6046 82.3634 15.9086 82.3634 19.0857ZM79.9611 19.0857C79.9611 17.1131 78.5325 15.7646 76.8754 15.7646C75.2182 15.7646 73.7897 17.1131 73.7897 19.0857C73.7897 21.0377 75.2182 22.4069 76.8754 22.4069C78.5325 22.4069 79.9611 21.0354 79.9611 19.0857Z" fill="#656A81" fill-opacity="0.5"/>
<path d="M93.7898 13.936V23.776C93.7898 27.824 91.4058 29.4857 88.5852 29.4857C85.9315 29.4857 84.3361 27.7006 83.7349 26.2469L85.8286 25.376C86.2012 26.2697 87.1132 27.328 88.5852 27.328C90.3886 27.328 91.5086 26.208 91.5086 24.1097V23.3211H91.4263C90.8869 23.9863 89.8515 24.5669 88.5441 24.5669C85.8081 24.5669 83.2983 22.1806 83.2983 19.1063C83.2983 16.0137 85.8081 13.6046 88.5441 13.6046C89.8492 13.6046 90.8869 14.1851 91.4263 14.8297H91.5086V13.936H93.7898ZM91.6732 19.1063C91.6732 17.1749 90.3886 15.7646 88.7498 15.7646C87.0903 15.7646 85.7029 17.1771 85.7029 19.1063C85.7029 21.0171 87.0926 22.4069 88.7498 22.4069C90.3886 22.4069 91.6732 21.0149 91.6732 19.1063Z" fill="#656A81" fill-opacity="0.5"/>
<path d="M97.9245 8.12342V24.2331H95.52V8.12342H97.9245Z" fill="#656A81" fill-opacity="0.5"/>
<path d="M107.246 20.8914L109.111 22.1371C108.51 23.0309 107.058 24.5669 104.551 24.5669C101.44 24.5669 99.12 22.1577 99.12 19.0857C99.12 15.8263 101.463 13.6046 104.283 13.6046C107.125 13.6046 108.512 15.8674 108.969 17.0926L109.218 17.7143L101.897 20.7452C102.457 21.8446 103.328 22.4069 104.551 22.4069C105.774 22.4069 106.624 21.8057 107.246 20.8914ZM101.502 18.9189L106.395 16.8846C106.126 16.1989 105.317 15.7211 104.363 15.7211C103.141 15.7211 101.44 16.8023 101.502 18.9189Z" fill="#656A81" fill-opacity="0.5"/>
<path d="M30.0366 1.6C30.7886 1.6 31.296 2.368 30.9988 3.05828L20.4 28.4137C19.9977 29.3417 19.0811 29.9429 18.0686 29.9429H10.8251C10.0731 29.9429 9.54742 29.2 9.84685 28.5097L10.6766 26.5189L12.4868 15.9474L17.7463 9.55428L20.4251 3.12914C20.8251 2.20114 21.5748 1.6 22.5874 1.6H30.0366Z" fill="#656A81" fill-opacity="0.5"/>
<path d="M17.7828 9.46514C15.9405 7.67543 13.4171 6.58514 10.6423 6.61486C5.08341 6.67657 0.623977 11.2206 0.685691 16.7634C0.74512 22.2194 5.16341 26.608 10.6057 26.6857C10.6308 26.6171 15.4743 19.0149 15.4743 19.0149C15.4743 19.0149 17.7828 9.46971 17.7828 9.46514Z" fill="#656A81" fill-opacity="0.5"/>
<path d="M17.7829 9.46513C17.7829 9.46513 10.5989 26.688 10.6057 26.688C10.6926 26.6903 10.7794 26.6903 10.8663 26.688C16.4274 26.6263 20.8846 22.0846 20.8229 16.5394C20.7932 13.7646 19.632 11.264 17.7829 9.46513Z" fill="#656A81" fill-opacity="0.5"/>
</svg>
