<svg width="222" height="32" viewBox="0 0 222 32" fill="none" xmlns="http://www.w3.org/2000/svg">
<path fill-rule="evenodd" clip-rule="evenodd" d="M219.319 18.7144C219.27 18.0442 218.962 17.4053 218.394 16.7965C217.825 16.1909 216.981 15.8866 215.86 15.8866C215.043 15.8866 214.336 16.1419 213.735 16.6537C213.134 17.1645 212.722 17.8524 212.499 18.7155H219.319L219.319 18.7144ZM216.149 26.386C214.372 26.386 212.927 25.796 211.816 24.613C210.7 23.4299 210.145 21.9363 210.145 20.1299C210.145 18.4205 210.685 16.9497 211.766 15.7187C212.846 14.4877 214.228 13.8728 215.908 13.8728C217.653 13.8728 219.051 14.4398 220.099 15.5749C221.148 16.71 221.673 18.2276 221.673 20.1299L221.648 20.5364H212.354C212.418 21.7205 212.815 22.6555 213.543 23.3424C214.272 24.0303 215.124 24.3732 216.101 24.3732C217.686 24.3732 218.758 23.702 219.319 22.3594L221.289 23.1745C220.904 24.0855 220.271 24.8496 219.39 25.4645C218.511 26.0785 217.429 26.387 216.149 26.387V26.386H216.149ZM204.373 26.387C203.06 26.387 201.976 26.0671 201.12 25.4281C200.284 24.8159 199.632 23.9868 199.234 23.0307L201.204 22.2156C201.828 23.6864 202.893 24.4212 204.398 24.4212C205.087 24.4212 205.651 24.2701 206.091 23.9657C206.53 23.6624 206.751 23.2621 206.751 22.766C206.751 21.9999 206.216 21.4808 205.142 21.2087L202.765 20.6323C202.012 20.4416 201.3 20.0778 200.627 19.5431C199.956 19.0073 199.619 18.2839 199.619 17.3729C199.619 16.3337 200.078 15.4905 201 14.8442C201.919 14.197 203.012 13.8728 204.278 13.8728C205.318 13.8728 206.247 14.1094 207.064 14.5795C207.865 15.0329 208.484 15.7488 208.817 16.6058L206.895 17.3969C206.463 16.3577 205.567 15.8386 204.206 15.8386C203.548 15.8386 202.997 15.9752 202.548 16.2462C202.099 16.5182 201.876 16.8862 201.876 17.349C201.876 18.0203 202.396 18.4757 203.438 18.7155L205.767 19.2669C206.872 19.5223 207.688 19.9621 208.216 20.5854C208.746 21.2088 209.009 21.9123 209.009 22.6951C209.009 23.7499 208.577 24.6286 207.712 25.3322C206.847 26.0347 205.734 26.387 204.374 26.387H204.373ZM189.316 14.2564V15.8855H189.412C189.731 15.3268 190.237 14.8515 190.925 14.4596C191.596 14.0725 192.359 13.87 193.134 13.8728C194.592 13.8728 195.703 14.321 196.472 15.2153C197.241 16.1096 197.625 17.3104 197.625 18.8113V26.0035H195.416V19.146C195.416 16.9727 194.447 15.8855 192.511 15.8855C191.598 15.8855 190.854 16.2504 190.276 16.9769C189.7 17.7044 189.412 18.5466 189.412 19.5056V26.0035H187.203V14.2564C187.203 14.2564 189.316 14.2564 189.316 14.2564ZM182.999 18.7144C182.951 18.0442 182.642 17.4053 182.074 16.7965C181.506 16.1909 180.661 15.8866 179.541 15.8866C178.724 15.8866 178.017 16.1419 177.415 16.6537C176.815 17.1645 176.403 17.8524 176.179 18.7155H182.999V18.7144ZM179.829 26.386C178.052 26.386 176.607 25.796 175.495 24.613C174.382 23.4299 173.825 21.9363 173.825 20.1299C173.825 18.4205 174.365 16.9497 175.447 15.7187C176.527 14.4877 177.908 13.8728 179.589 13.8728C181.334 13.8728 182.731 14.4398 183.78 15.5749C184.829 16.71 185.353 18.2276 185.353 20.1299L185.329 20.5364H176.035C176.099 21.7205 176.495 22.6555 177.224 23.3424C177.952 24.0303 178.804 24.3732 179.781 24.3732C181.367 24.3732 182.439 23.702 182.999 22.3594L184.969 23.1745C184.585 24.0855 183.952 24.8496 183.071 25.4645C182.191 26.0785 181.109 26.387 179.829 26.387L179.829 26.386ZM166.529 26.387C165.282 26.387 164.06 25.9784 162.868 25.1644C161.675 24.3493 160.894 23.2069 160.525 21.7362L162.544 20.921C162.775 21.8503 163.291 22.6841 164.02 23.3059C164.764 23.9532 165.6 24.2774 166.528 24.2774C167.49 24.2774 168.31 24.0251 168.991 23.5217C169.671 23.0193 170.012 22.3355 170.012 21.4724C170.012 20.5135 169.671 19.7745 168.991 19.2543C168.31 18.7353 167.233 18.2516 165.761 17.8045C164.24 17.325 163.086 16.7058 162.302 15.946C161.518 15.1872 161.126 14.2167 161.126 13.0327C161.126 11.8027 161.614 10.7312 162.592 9.82019C163.567 8.90918 164.84 8.45472 166.409 8.45472C167.866 8.45472 169.051 8.81849 169.964 9.54604C170.876 10.2725 171.467 11.0679 171.741 11.9309L169.724 12.77C169.581 12.2269 169.222 11.7235 168.655 11.2596C168.086 10.7958 167.354 10.5644 166.458 10.5644C165.609 10.5644 164.885 10.8 164.284 11.2711C163.684 11.7433 163.383 12.3312 163.383 13.0327C163.383 13.6737 163.66 14.2115 164.212 14.6514C164.765 15.0913 165.577 15.4874 166.65 15.8386C167.498 16.1107 168.205 16.3744 168.775 16.6298C169.385 16.9101 169.964 17.2512 170.505 17.6481C171.088 18.0713 171.528 18.5987 171.826 19.2314C172.121 19.862 172.269 20.5927 172.269 21.4245C172.269 22.2552 172.098 22.9984 171.754 23.654C171.435 24.2797 170.964 24.8155 170.385 25.2123C169.246 25.9794 167.903 26.3885 166.529 26.387ZM152.838 24.3722C153.878 24.3722 154.763 23.9897 155.491 23.2215C156.219 22.4543 156.585 21.4245 156.585 20.1299C156.585 18.8354 156.219 17.8034 155.491 17.0373C154.763 16.2702 153.878 15.8855 152.839 15.8855C151.814 15.8855 150.933 16.2733 150.197 17.0488C149.459 17.8243 149.091 18.852 149.091 20.1299C149.091 21.4078 149.459 22.4356 150.197 23.21C150.933 23.9855 151.814 24.3722 152.839 24.3722L152.838 24.3722ZM152.477 26.387C150.956 26.387 149.643 25.7867 148.54 24.588C147.433 23.3903 146.882 21.904 146.882 20.1299C146.882 18.3558 147.433 16.8695 148.539 15.6698C149.643 14.4711 150.956 13.8728 152.477 13.8728C153.375 13.8728 154.179 14.0635 154.891 14.4481C155.603 14.8317 156.136 15.3112 156.489 15.8866H156.585L156.489 14.2564V8.83831H158.697V26.0024H156.585V24.3722H156.489C156.136 24.9486 155.603 25.4281 154.891 25.8117C154.178 26.1942 153.374 26.387 152.477 26.387ZM135.715 19.2898H141.432L138.621 11.5463H138.525L135.715 19.2908L135.715 19.2898ZM130.838 26.0024L137.323 8.83833H139.822L146.307 26.0024H143.857L142.199 21.3536H134.97L133.289 26.0024H130.839H130.838Z" fill="#656A81" fill-opacity="0.5"/>
<path fill-rule="evenodd" clip-rule="evenodd" d="M115.053 19.9413L120.654 17.6189C120.345 16.8372 119.421 16.2931 118.329 16.2931C116.929 16.2931 114.983 17.5251 115.053 19.9413ZM121.628 22.1917L123.763 23.6124C123.076 24.6318 121.413 26.385 118.542 26.385C114.983 26.385 112.413 23.6363 112.413 20.131C112.413 16.4098 115.006 13.8759 118.234 13.8759C121.486 13.8759 123.076 16.4588 123.597 17.8566L123.882 18.5674L115.504 22.0259C116.146 23.2819 117.142 23.9209 118.542 23.9209C119.941 23.9209 120.915 23.2329 121.628 22.1906L121.628 22.1917ZM108.051 26.0055H110.804V7.62192H108.051V26.0055ZM103.56 20.1539C103.56 17.9514 102.088 16.34 100.213 16.34C98.3162 16.34 96.7248 17.9514 96.7248 20.1539C96.7248 22.3334 98.3161 23.9209 100.212 23.9209C102.088 23.9209 103.56 22.3334 103.56 20.1539ZM105.979 14.2553V25.4844C105.979 30.104 103.251 32 100.023 32C96.9848 32 95.1575 29.9622 94.4704 28.3039L96.8668 27.3085C97.295 28.3268 98.3391 29.5349 100.023 29.5349C102.088 29.5349 103.37 28.2559 103.37 25.8638V24.9632H103.275C102.658 25.721 101.471 26.3849 99.9754 26.3849C96.8428 26.3849 93.9713 23.6603 93.9713 20.1539C93.9713 16.6245 96.8428 13.8759 99.9754 13.8759C101.471 13.8759 102.658 14.5388 103.275 15.2737H103.369V14.2553C103.369 14.2553 105.979 14.2553 105.979 14.2553ZM75.9383 20.131C75.9383 17.8795 74.3302 16.34 72.4664 16.34C70.6025 16.34 68.9945 17.8806 68.9945 20.131C68.9945 22.3574 70.6025 23.9209 72.4664 23.9209C74.3303 23.9209 75.9383 22.3574 75.9383 20.131ZM78.6406 20.131C78.6406 23.7312 75.8683 26.385 72.4664 26.385C69.0644 26.385 66.2921 23.7312 66.2921 20.131C66.2921 16.5057 69.0644 13.8769 72.4664 13.8769C75.8683 13.877 78.6406 16.5047 78.6406 20.131ZM89.781 20.131C89.781 17.8795 88.173 16.34 86.3091 16.34C84.4452 16.34 82.8372 17.8806 82.8372 20.131C82.8372 22.3574 84.4452 23.9209 86.3091 23.9209C88.173 23.9209 89.781 22.3574 89.781 20.131ZM92.4844 20.131C92.4844 23.7312 89.7111 26.385 86.3091 26.385C82.9071 26.385 80.1348 23.7312 80.1348 20.131C80.1348 16.5057 82.9071 13.8769 86.3091 13.8769C89.7111 13.8769 92.4844 16.5047 92.4844 20.131ZM55.7125 26.385C50.3506 26.385 45.8408 22.0259 45.8408 16.6725C45.8408 11.318 50.3506 6.95795 55.7135 6.95795C58.6811 6.95795 60.7924 8.12014 62.3827 9.63674L60.5074 11.5077C59.3682 10.4414 57.8259 9.61275 55.7135 9.61275C51.7978 9.61275 48.7353 12.7637 48.7353 16.6725C48.7353 20.5812 51.7978 23.7312 55.7135 23.7312C58.253 23.7312 59.7002 22.7128 60.6264 21.7883C61.3855 21.0315 61.8846 19.9412 62.0736 18.4486H55.7125V15.7959H64.659C64.7551 16.2691 64.8021 16.8382 64.8021 17.4532C64.8021 19.444 64.256 21.9081 62.5007 23.6613C60.7914 25.4375 58.608 26.385 55.7125 26.385Z" fill="#656A81" fill-opacity="0.5"/>
<path fill-rule="evenodd" clip-rule="evenodd" d="M20.5413 7.87728C22.0115 5.36527 21.1385 2.15487 18.5918 0.703948C16.044 -0.744907 12.7872 0.113977 11.317 2.62599C11.2522 2.73854 11.1912 2.85328 11.1342 2.96997L6.16394 11.4577C6.05398 11.6264 5.95221 11.8003 5.85903 11.9789L0.697632 20.87L9.92089 26.0305L15.0562 17.2145C15.1681 17.047 15.2699 16.8729 15.3611 16.6933L20.3314 8.20455C20.4034 8.09825 20.4755 7.98985 20.5413 7.87728Z" fill="#656A81" fill-opacity="0.5"/>
<path fill-rule="evenodd" clip-rule="evenodd" d="M9.96374 26.0035C8.50189 28.5562 5.20435 29.4953 2.67221 28.0225C0.139021 26.5486 -0.76002 23.3528 0.702875 20.8012C2.16577 18.2496 5.43406 17.3062 7.96724 18.7791C10.5004 20.2529 11.4256 23.4518 9.96372 26.0024" fill="#656A81" fill-opacity="0.5"/>
<path fill-rule="evenodd" clip-rule="evenodd" d="M29.8669 9.55752C27.3493 8.10918 24.1324 8.96686 22.6735 11.4754L17.4077 20.5583C15.9569 23.0617 16.8138 26.2652 19.3217 27.7134C19.3262 27.716 19.3307 27.7186 19.3352 27.7212C21.8533 29.1701 25.0711 28.3118 26.5297 25.8023L31.7944 16.7204C33.245 14.2162 32.3873 11.0123 29.8786 9.56429C29.8747 9.56202 29.8708 9.55976 29.8669 9.55752Z" fill="#656A81" fill-opacity="0.5"/>
</svg>
