<svg width="213" height="32" viewBox="0 0 213 32" fill="none" xmlns="http://www.w3.org/2000/svg">
<path fill-rule="evenodd" clip-rule="evenodd" d="M151.811 20.9908C151.811 22.5373 151.243 23.7791 150.108 24.7167C148.956 25.6382 147.558 26.0985 145.913 26.0985C144.449 26.0985 143.158 25.6709 142.04 24.8154C140.92 23.9603 140.147 22.7923 139.72 21.3116L141.891 20.4235C142.04 20.95 142.245 21.4271 142.508 21.8545C142.771 22.2824 143.08 22.6485 143.433 22.9527C143.782 23.2541 144.178 23.4958 144.605 23.668C145.033 23.8408 145.486 23.9271 145.963 23.9271C146.999 23.9271 147.846 23.6601 148.504 23.1252C149.162 22.5908 149.491 21.8791 149.491 20.9908C149.491 20.2506 149.22 19.6175 148.677 19.0911C148.167 18.5812 147.213 18.0877 145.815 17.6104C144.4 17.1007 143.52 16.7553 143.174 16.5741C141.299 15.6204 140.362 14.214 140.362 12.3547C140.362 11.0554 140.88 9.94506 141.916 9.02361C142.968 8.10275 144.26 7.64183 145.79 7.64183C147.139 7.64183 148.307 7.98728 149.294 8.67817C150.281 9.35287 150.939 10.1999 151.268 11.2197L149.146 12.108C148.948 11.4504 148.557 10.9031 147.974 10.4671C147.389 10.0314 146.678 9.8134 145.839 9.8134C144.951 9.8134 144.202 10.06 143.594 10.5534C142.985 11.0142 142.681 11.6145 142.681 12.3547C142.681 12.9635 142.919 13.4897 143.397 13.9341C143.923 14.378 145.066 14.9049 146.826 15.5131C148.619 16.1218 149.898 16.8663 150.663 17.7461C151.428 18.6263 151.811 19.708 151.811 20.9908ZM158.365 25.9013C157.378 25.9013 156.56 25.5971 155.91 24.9883C155.261 24.3798 154.927 23.5325 154.911 22.4467V15.6858H152.789V13.6133H154.911V9.9121H157.181V13.6133H160.142V15.6858H157.181V21.706C157.181 22.5126 157.337 23.0597 157.65 23.3473C157.962 23.6351 158.316 23.7789 158.711 23.7789C158.892 23.7789 159.069 23.7586 159.241 23.7172C159.414 23.6765 159.574 23.6227 159.722 23.557L160.438 25.5803C159.846 25.7937 159.155 25.9011 158.365 25.9011V25.9013ZM163.706 22.0025C163.706 22.5947 163.956 23.0882 164.458 23.4832C164.96 23.878 165.548 24.0752 166.222 24.0752C167.176 24.0752 168.028 23.7216 168.776 23.0142C169.525 22.3071 169.899 21.4764 169.899 20.522C169.192 19.963 168.205 19.6831 166.938 19.6831C166.017 19.6831 165.248 19.9052 164.631 20.3493C164.014 20.7936 163.706 21.3448 163.706 22.0025H163.706ZM166.642 13.2185C168.32 13.2185 169.644 13.6667 170.615 14.5631C171.585 15.46 172.071 16.6893 172.071 18.252V25.7037H169.899V24.0258H169.8C168.863 25.4076 167.612 26.0985 166.05 26.0985C164.717 26.0985 163.603 25.7037 162.706 24.9141C161.81 24.1245 161.362 23.1375 161.362 21.9532C161.362 20.7034 161.834 19.708 162.78 18.9675C163.726 18.2273 164.989 17.8572 166.568 17.8572C167.917 17.8572 169.027 18.1039 169.899 18.5974V18.0792C169.899 17.2896 169.586 16.6196 168.961 16.0682C168.336 15.5173 167.604 15.2418 166.765 15.2418C165.498 15.2418 164.495 15.7764 163.755 16.8457L161.756 15.5871C162.858 14.0079 164.487 13.2185 166.642 13.2185H166.642ZM179.178 25.9013C178.191 25.9013 177.373 25.5971 176.723 24.9883C176.073 24.3798 175.74 23.5325 175.724 22.4467V15.6858H173.602V13.6133H175.724V9.9121H177.993V13.6133H180.955V15.6858H177.994V21.706C177.994 22.5126 178.15 23.0597 178.462 23.3473C178.775 23.6351 179.129 23.7789 179.523 23.7789C179.704 23.7789 179.881 23.7586 180.054 23.7172C180.227 23.6765 180.387 23.6227 180.535 23.557L181.251 25.5803C180.659 25.7937 179.968 25.9011 179.178 25.9011" fill="#656A81" fill-opacity="0.5"/>
<path fill-rule="evenodd" clip-rule="evenodd" d="M183.34 25.7037H185.61V13.6131H183.34V25.7037ZM186.078 9.44328C186.078 9.88723 185.922 10.2658 185.61 10.5781C185.297 10.8908 184.919 11.0469 184.475 11.0469C184.031 11.0469 183.652 10.8908 183.34 10.5781C183.027 10.2658 182.871 9.88723 182.871 9.44328C182.871 8.99894 183.027 8.62073 183.34 8.30805C183.652 7.99576 184.031 7.83923 184.475 7.83923C184.919 7.83923 185.297 7.99576 185.61 8.30805C185.922 8.62073 186.078 8.99894 186.078 9.44328ZM190.121 19.6584C190.121 20.9581 190.499 22.011 191.256 22.817C192.013 23.6227 192.951 24.0256 194.069 24.0256C195.188 24.0256 196.125 23.6227 196.882 22.817C197.639 22.011 198.017 20.9581 198.017 19.6584C198.017 18.3755 197.639 17.3311 196.882 16.5247C196.109 15.7026 195.171 15.291 194.069 15.291C192.967 15.291 192.029 15.7026 191.256 16.5247C190.499 17.3311 190.121 18.3753 190.121 19.6584ZM187.851 19.6584C187.851 17.7997 188.435 16.2618 189.603 15.0442C190.787 13.8271 192.276 13.2185 194.069 13.2185C195.862 13.2185 197.342 13.8271 198.511 15.0441C199.695 16.2618 200.287 17.7997 200.287 19.6584C200.287 21.5339 199.695 23.072 198.511 24.2728C197.342 25.4901 195.862 26.0983 194.069 26.0983C192.276 26.0983 190.787 25.4901 189.603 24.2728C188.435 23.0554 187.851 21.5177 187.851 19.6584ZM202.092 13.6131H204.263V15.2912H204.361C204.707 14.699 205.237 14.2053 205.953 13.8105C206.669 13.4159 207.413 13.2183 208.186 13.2183C209.666 13.2183 210.805 13.642 211.604 14.4893C212.401 15.3365 212.8 16.5413 212.8 18.1041V25.7039H210.53V18.252C210.481 16.278 209.485 15.291 207.544 15.291C206.64 15.291 205.883 15.6573 205.275 16.3888C204.666 17.1214 204.361 17.9971 204.361 19.0169V25.7039H202.092V13.6133V13.6131ZM54.6406 15.9815C54.6406 10.4046 59.329 5.86449 64.9058 5.86449C67.9903 5.86449 70.1866 7.07355 71.8398 8.65273L69.8903 10.6022C68.7059 9.49167 67.1021 8.62805 64.9058 8.62805C60.8345 8.62805 57.6511 11.91 57.6511 15.9815C57.6511 20.0528 60.8343 23.3349 64.9058 23.3349C67.546 23.3349 69.0514 22.2739 70.0137 21.3114C70.8035 20.5218 71.3214 19.3868 71.5192 17.8323H64.9058V15.0685H74.2086C74.3073 15.562 74.3566 16.1542 74.3566 16.7958C74.3566 18.8686 73.7891 21.435 71.963 23.2609C70.1866 25.1115 67.9161 26.0985 64.9058 26.0985C59.329 26.0985 54.6408 21.5584 54.6408 15.9815H54.6406ZM81.8749 23.5323C79.9007 23.5323 78.1982 21.9038 78.1982 19.5842C78.1982 17.2399 79.9007 15.6361 81.8749 15.6361C83.8489 15.6361 85.5514 17.2399 85.5514 19.584C85.5514 21.9038 83.8489 23.5323 81.8749 23.5323ZM81.8749 13.0699C78.2722 13.0699 75.3357 15.8088 75.3357 19.5842C75.3357 23.3349 78.2722 26.0987 81.8749 26.0987C85.4774 26.0987 88.4139 23.3349 88.4139 19.5842C88.4139 15.8088 85.4774 13.0699 81.8749 13.0699ZM96.1399 23.5323C94.166 23.5323 92.463 21.9038 92.463 19.5842C92.463 17.2399 94.166 15.6361 96.1399 15.6361C98.1139 15.6361 99.8165 17.2399 99.8165 19.584C99.8165 21.9038 98.1139 23.5323 96.1399 23.5323ZM96.1399 13.0699C92.537 13.0699 89.6006 15.8088 89.6006 19.5842C89.6006 23.3349 92.537 26.0987 96.1399 26.0987C99.7424 26.0987 102.679 23.3349 102.679 19.5842C102.679 15.8088 99.7422 13.0699 96.1397 13.0699H96.1399ZM110.367 23.5323C108.393 23.5323 106.74 21.8791 106.74 19.6089C106.74 17.3141 108.393 15.6359 110.367 15.6359C112.317 15.6359 113.847 17.3141 113.847 19.6089C113.847 21.8791 112.317 23.5323 110.367 23.5323ZM113.649 13.4645V14.5257H113.551C112.909 13.7608 111.675 13.0699 110.121 13.0699C106.863 13.0699 103.878 15.9321 103.878 19.6087C103.878 23.2609 106.864 26.0987 110.121 26.0987C111.675 26.0987 112.909 25.4078 113.551 24.618H113.649V25.5559C113.649 28.048 112.317 29.3804 110.17 29.3804C108.418 29.3804 107.332 28.122 106.888 27.061L104.396 28.0974C105.111 29.8246 107.012 31.9468 110.17 31.9468C113.526 31.9468 116.364 29.9728 116.364 25.1611V13.4645H113.649ZM118.338 25.7037H121.2V6.55519H118.338V25.7037ZM128.825 15.5867C129.96 15.5867 130.922 16.1542 131.243 16.9685L125.42 19.3868C125.346 16.8698 127.369 15.5867 128.825 15.5867H128.825ZM129.047 23.5323C127.591 23.5323 126.555 22.8661 125.889 21.5584L134.599 17.9555L134.303 17.2152C133.76 15.7594 132.107 13.0697 128.726 13.0697C125.37 13.0697 122.582 15.7101 122.582 19.5842C122.582 23.2362 125.346 26.0985 129.047 26.0985C132.033 26.0985 133.76 24.2726 134.476 23.2116L132.255 21.7311C131.515 22.8168 130.503 23.5323 129.047 23.5323" fill="#656A81" fill-opacity="0.5"/>
<path fill-rule="evenodd" clip-rule="evenodd" d="M16.2757 25.6127L23.6916 27.0585V27.0587L22.5047 31.8082C22.4773 31.9177 22.6117 31.9935 22.6913 31.9136L30.1274 24.4804C30.1418 24.4659 30.152 24.4478 30.1567 24.428C30.1615 24.4081 30.1607 24.3874 30.1545 24.368C30.1483 24.3485 30.1368 24.3312 30.1214 24.3178C30.106 24.3045 30.0872 24.2956 30.0671 24.2922L22.6512 22.8465L23.8381 18.0968C23.8655 17.9873 23.7311 17.9117 23.6515 17.9913L16.2155 25.4246C16.2011 25.439 16.191 25.4571 16.1862 25.477C16.1814 25.4968 16.1822 25.5175 16.1884 25.5369C16.1946 25.5564 16.206 25.5737 16.2214 25.5871C16.2368 25.6004 16.2556 25.6093 16.2757 25.6127Z" fill="#656A81" fill-opacity="0.5"/>
<path fill-rule="evenodd" clip-rule="evenodd" d="M22.6244 0V4.99855C30.0576 4.99855 36.8225 8.03489 41.7164 12.9054L45.2486 9.37349C39.4504 3.60501 31.4294 0 22.6244 0Z" fill="#656A81" fill-opacity="0.5"/>
<path fill-rule="evenodd" clip-rule="evenodd" d="M22.6242 0C13.819 0 5.79798 3.60501 0 9.37349L3.53214 12.9054C8.42602 8.03489 15.1909 4.99855 22.6242 4.99855V0Z" fill="#656A81" fill-opacity="0.5"/>
<path fill-rule="evenodd" clip-rule="evenodd" d="M22.6244 9.93774C16.5616 9.93774 11.0186 12.4168 7.0379 16.4077L10.5683 19.9416C13.6544 16.8655 17.9333 14.9359 22.6242 14.9359C27.3157 14.9359 31.5944 16.8654 34.6805 19.9414L38.2109 16.4075C34.2302 12.4166 28.6873 9.93755 22.6244 9.93755" fill="#656A81" fill-opacity="0.5"/>
</svg>
