<svg width="64" height="64" viewBox="0 0 64 64" fill="none" xmlns="http://www.w3.org/2000/svg">
<path opacity="0.4" d="M14.2136 51.7867C13.9203 51.7867 13.6003 51.7067 13.3336 51.5733L7.41364 48.6133C6.74697 48.2667 6.32031 47.5733 6.32031 46.8267V39.4133C6.32031 38.32 7.22698 37.4133 8.32031 37.4133C9.41365 37.4133 10.3203 38.32 10.3203 39.4133V45.5733L15.147 47.9733C16.1336 48.48 16.5336 49.68 16.0536 50.6667C15.6536 51.36 14.9603 51.7867 14.2136 51.7867Z" fill="#5727A3"/>
<path d="M32.0005 60.6667C31.8405 60.6667 31.6806 60.64 31.5472 60.6133C31.3872 60.5867 31.2272 60.5067 31.0672 60.4267L25.1739 57.4933C24.1872 56.9867 23.7872 55.7867 24.2672 54.8C24.7739 53.8133 25.9739 53.4134 26.9606 53.8934L30.0005 55.4133V51.2533C30.0005 50.16 30.9072 49.2533 32.0005 49.2533C33.0939 49.2533 34.0005 50.16 34.0005 51.2533V55.4133L37.0405 53.8934C38.0272 53.4134 39.2272 53.8133 39.7339 54.8C40.2406 55.7867 39.8405 56.9867 38.8272 57.4933L32.9339 60.4267C32.7739 60.5067 32.6139 60.56 32.4539 60.6133C32.2939 60.64 32.1605 60.6667 32.0005 60.6667Z" fill="#5727A3"/>
<path opacity="0.4" d="M49.7871 51.7867C49.0671 51.7867 48.3471 51.3867 48.0005 50.6933C47.4938 49.7067 47.8938 48.5067 48.9071 48L53.7338 45.6V39.44C53.7338 38.3467 54.6405 37.44 55.7338 37.44C56.8272 37.44 57.7338 38.3467 57.7338 39.44V46.8534C57.7338 47.6 57.3071 48.2934 56.6405 48.64L50.7205 51.6C50.3738 51.7067 50.0805 51.7867 49.7871 51.7867Z" fill="#5727A3"/>
<path d="M32.0005 38.4533C30.9072 38.4533 30.0005 37.5467 30.0005 36.4533V30.2933L25.1739 27.8933C24.1872 27.3867 23.7872 26.1867 24.2672 25.2C24.7739 24.2133 25.9739 23.8133 26.9606 24.2933L32.0005 26.8L37.0405 24.2933C38.0272 23.8133 39.2272 24.1867 39.7339 25.2C40.2406 26.1867 39.8405 27.3867 38.8272 27.8933L34.0005 30.2933V36.4533C34.0005 37.5467 33.0939 38.4533 32.0005 38.4533Z" fill="#5727A3"/>
<path opacity="0.4" d="M8.29297 26.5867C7.19964 26.5867 6.29297 25.68 6.29297 24.5867V17.2267V17.2C6.29297 17.04 6.31963 16.88 6.34629 16.7467C6.39963 16.5333 6.47964 16.3467 6.5863 16.16C6.6663 16.0267 6.7463 15.92 6.85297 15.8133C6.95963 15.7066 7.09296 15.6 7.2263 15.52C7.27963 15.4933 7.35963 15.44 7.41296 15.4133L13.3063 12.48C14.293 12 15.493 12.3733 15.9996 13.3867C16.5063 14.3733 16.1063 15.5733 15.093 16.08L12.7463 17.2533L15.093 18.4267C16.0796 18.9333 16.4796 20.1333 15.9996 21.12C15.5196 22.1067 14.293 22.5066 13.3063 22.0266L10.2663 20.5067V24.6667C10.293 25.7067 9.41297 26.5867 8.29297 26.5867Z" fill="#5727A3"/>
<path d="M37.9194 10.2933C37.6261 10.2933 37.3061 10.2133 37.0394 10.08L31.9994 7.57331L26.9594 10.08C25.9728 10.5866 24.7728 10.1867 24.2661 9.17332C23.7594 8.18666 24.1594 6.98663 25.1728 6.47996L31.0928 3.52C31.6528 3.22667 32.3194 3.22667 32.8794 3.52L38.7994 6.47996C39.7861 6.98663 40.1861 8.18666 39.7061 9.17332C39.3594 9.89332 38.6661 10.2933 37.9194 10.2933Z" fill="#5727A3"/>
<path opacity="0.4" d="M55.7065 26.5867C54.6131 26.5867 53.7065 25.68 53.7065 24.5867V20.4267L50.6665 21.9466C49.6798 22.4533 48.4798 22.0533 47.9731 21.04C47.4665 20.0533 47.8665 18.8533 48.8798 18.3467L51.2265 17.1733L48.8798 16C47.8931 15.4933 47.4931 14.2933 47.9731 13.3067C48.4531 12.32 49.6798 11.92 50.6665 12.4L56.5598 15.3333C56.6131 15.36 56.6931 15.3866 56.7465 15.44C56.9065 15.52 57.0398 15.6533 57.1731 15.7867C57.2531 15.8933 57.3331 16 57.4131 16.1066C57.5198 16.2933 57.5998 16.48 57.6531 16.6933C57.6798 16.8533 57.7065 17.0133 57.7065 17.1466V17.1733V24.5333C57.7065 25.7066 56.7998 26.5867 55.7065 26.5867Z" fill="#5727A3"/>
</svg>
