<svg width="40" height="40" viewBox="0 0 40 40" fill="none" xmlns="http://www.w3.org/2000/svg">
<path opacity="0.4" d="M26.984 3.33337H13.0173C6.95065 3.33337 3.33398 6.95004 3.33398 13.0167V26.9667C3.33398 33.05 6.95065 36.6667 13.0173 36.6667H26.9673C33.034 36.6667 36.6507 33.05 36.6507 26.9834V13.0167C36.6673 6.95004 33.0507 3.33337 26.984 3.33337Z" fill="#5727A3"/>
<path d="M11.4842 26.25C11.0175 26.25 10.5842 26 10.3675 25.5666C10.0508 24.95 10.3008 24.2 10.9342 23.8833C12.3842 23.1666 13.6175 22.0666 14.5008 20.7333C14.8008 20.2833 14.8008 19.7166 14.5008 19.2666C13.6008 17.9333 12.3675 16.8333 10.9342 16.1166C10.3008 15.8166 10.0508 15.0666 10.3675 14.4333C10.6675 13.8166 11.4175 13.5666 12.0342 13.8833C13.8675 14.8 15.4342 16.1833 16.5675 17.8833C17.4175 19.1666 17.4175 20.8333 16.5675 22.1166C15.4342 23.8166 13.8675 25.2 12.0342 26.1166C11.8675 26.2 11.6675 26.25 11.4842 26.25Z" fill="#5727A3"/>
<path d="M28.3327 26.25H21.666C20.9827 26.25 20.416 25.6833 20.416 25C20.416 24.3167 20.9827 23.75 21.666 23.75H28.3327C29.016 23.75 29.5827 24.3167 29.5827 25C29.5827 25.6833 29.016 26.25 28.3327 26.25Z" fill="#5727A3"/>
</svg>
