<svg width="40" height="40" viewBox="0 0 40 40" fill="none" xmlns="http://www.w3.org/2000/svg">
<path opacity="0.4" d="M34.166 16.9833H29.3493C25.3993 16.9833 22.1827 13.7666 22.1827 9.81659V4.99992C22.1827 4.08325 21.4327 3.33325 20.516 3.33325H13.4493C8.31602 3.33325 4.16602 6.66659 4.16602 12.6166V27.3833C4.16602 33.3333 8.31602 36.6666 13.4493 36.6666H26.5493C31.6827 36.6666 35.8327 33.3333 35.8327 27.3833V18.6499C35.8327 17.7333 35.0827 16.9833 34.166 16.9833Z" fill="#5727A3"/>
<path d="M26.3335 3.6834C25.6501 3.00007 24.4668 3.46674 24.4668 4.41674V10.2334C24.4668 12.6667 26.5335 14.6834 29.0501 14.6834C30.6335 14.7001 32.8335 14.7001 34.7168 14.7001C35.6668 14.7001 36.1668 13.5834 35.5001 12.9167C33.1001 10.5001 28.8001 6.15007 26.3335 3.6834Z" fill="#5727A3"/>
<path d="M22.5 22.9167H12.5C11.8167 22.9167 11.25 22.3501 11.25 21.6667C11.25 20.9834 11.8167 20.4167 12.5 20.4167H22.5C23.1833 20.4167 23.75 20.9834 23.75 21.6667C23.75 22.3501 23.1833 22.9167 22.5 22.9167Z" fill="#5727A3"/>
<path d="M19.1667 29.5833H12.5C11.8167 29.5833 11.25 29.0166 11.25 28.3333C11.25 27.6499 11.8167 27.0833 12.5 27.0833H19.1667C19.85 27.0833 20.4167 27.6499 20.4167 28.3333C20.4167 29.0166 19.85 29.5833 19.1667 29.5833Z" fill="#5A6178"/>
</svg>
