<svg width="40" height="40" viewBox="0 0 40 40" fill="none" xmlns="http://www.w3.org/2000/svg">
<path opacity="0.4" d="M35 36.6667H5C4.31667 36.6667 3.75 36.1001 3.75 35.4167C3.75 34.7334 4.31667 34.1667 5 34.1667H35C35.6833 34.1667 36.25 34.7334 36.25 35.4167C36.25 36.1001 35.6833 36.6667 35 36.6667Z" fill="#5727A3"/>
<path opacity="0.4" d="M31.7009 5.79998C28.4676 2.56664 25.3009 2.48331 21.9843 5.79998L19.9676 7.81664C19.8009 7.98331 19.7343 8.24998 19.8009 8.48331C21.0676 12.9 24.6009 16.4333 29.0176 17.7C29.0843 17.7166 29.1509 17.7333 29.2176 17.7333C29.4009 17.7333 29.5676 17.6666 29.7009 17.5333L31.7009 15.5166C33.3509 13.8833 34.1509 12.3 34.1509 10.7C34.1676 9.04998 33.3676 7.44998 31.7009 5.79998Z" fill="#5727A3"/>
<path d="M26.0159 19.2167C25.5326 18.9834 25.0659 18.75 24.6159 18.4834C24.2492 18.2667 23.8992 18.0334 23.5492 17.7834C23.2659 17.6 22.9326 17.3334 22.6159 17.0667C22.5826 17.05 22.4659 16.95 22.3326 16.8167C21.7826 16.35 21.1659 15.75 20.6159 15.0834C20.5659 15.05 20.4826 14.9334 20.3659 14.7834C20.1992 14.5834 19.9159 14.25 19.6659 13.8667C19.4659 13.6167 19.2326 13.25 19.0159 12.8834C18.7492 12.4334 18.5159 11.9834 18.2826 11.5167C18.0492 11.0167 17.8659 10.5334 17.6992 10.0834L7.23256 20.55C7.0159 20.7667 6.8159 21.1834 6.7659 21.4667L5.8659 27.85C5.69923 28.9834 6.0159 30.05 6.7159 30.7667C7.3159 31.35 8.14923 31.6667 9.04923 31.6667C9.24923 31.6667 9.44923 31.65 9.64923 31.6167L16.0492 30.7167C16.3492 30.6667 16.7659 30.4667 16.9659 30.25L27.4326 19.7834C26.9659 19.6167 26.5159 19.4334 26.0159 19.2167Z" fill="#5727A3"/>
</svg>
