<svg width="64" height="64" viewBox="0 0 64 64" fill="none" xmlns="http://www.w3.org/2000/svg">
<path d="M27.0126 40.0267L24.2659 37.28L26.9059 34.64C27.6792 33.8667 27.6792 32.5867 26.9059 31.8133C26.1326 31.04 24.8526 31.04 24.0792 31.8133L21.4392 34.4533L18.8792 31.8933C18.1059 31.12 16.8259 31.12 16.0526 31.8933C15.2792 32.6667 15.2792 33.9467 16.0526 34.72L18.6126 37.28L15.9726 39.92C15.1992 40.6933 15.1992 41.9733 15.9726 42.7467C16.3726 43.1467 16.8792 43.3333 17.3859 43.3333C17.8926 43.3333 18.3992 43.1467 18.7992 42.7467L21.4392 40.1067L24.1859 42.8533C24.5859 43.2533 25.0926 43.44 25.5992 43.44C26.1059 43.44 26.6126 43.2533 27.0126 42.8533C27.7859 42.08 27.7859 40.8 27.0126 40.0267Z" fill="#5727A3"/>
<path d="M36.1074 40C34.6407 40 33.4141 38.8 33.4141 37.3333C33.4141 35.8667 34.5874 34.6667 36.0541 34.6667H36.1074C37.5741 34.6667 38.7741 35.8667 38.7741 37.3333C38.7741 38.8 37.6007 40 36.1074 40Z" fill="#5727A3"/>
<path d="M46.6133 40C45.1466 40 43.9199 38.8 43.9199 37.3333C43.9199 35.8667 45.0933 34.6667 46.5599 34.6667H46.6133C48.0799 34.6667 49.2799 35.8667 49.2799 37.3333C49.2799 38.8 48.1066 40 46.6133 40Z" fill="#5727A3"/>
<path d="M41.3327 45.2533C39.866 45.2533 38.666 44.08 38.666 42.6133V42.56C38.666 41.0933 39.866 39.8933 41.3327 39.8933C42.7993 39.8933 43.9993 41.0933 43.9993 42.56C43.9993 44.0267 42.826 45.2533 41.3327 45.2533Z" fill="#5727A3"/>
<path d="M41.3327 34.7467C39.866 34.7467 38.666 33.5733 38.666 32.1067V32.0533C38.666 30.5867 39.866 29.3867 41.3327 29.3867C42.7993 29.3867 43.9993 30.5867 43.9993 32.0533C43.9993 33.52 42.826 34.7467 41.3327 34.7467Z" fill="#5727A3"/>
<path opacity="0.4" d="M58.6673 29.52V44.4C58.6673 52.2667 52.2673 58.6667 44.4007 58.6667H19.6007C11.734 58.6667 5.33398 52.2667 5.33398 44.4V29.52C5.33398 21.6533 11.734 15.2533 19.6007 15.2533H44.4007C52.2673 15.2533 58.6673 21.6533 58.6673 29.52Z" fill="#5727A3"/>
<path d="M36.3736 7.22666L36.347 9.73333C36.3203 12.08 34.3736 14.0267 32.0003 14.0267C31.6003 14.0267 31.3603 14.2933 31.3603 14.64C31.3603 14.9867 31.627 15.2533 31.9736 15.2533H27.6803C27.6536 15.0667 27.627 14.8533 27.627 14.64C27.627 12.24 29.5736 10.2933 31.947 10.2933C32.347 10.2933 32.6136 10.0267 32.6136 9.68L32.6403 7.17333C32.667 6.16 33.4936 5.33333 34.507 5.33333H34.5336C35.5736 5.33333 36.3736 6.18666 36.3736 7.22666Z" fill="#5727A3"/>
</svg>
