<svg width="22" height="22" viewBox="0 0 22 22" fill="none" xmlns="http://www.w3.org/2000/svg">
<path fill-rule="evenodd" clip-rule="evenodd" d="M11.2297 7.7915C10.3451 7.7915 9.62549 8.51109 9.62549 9.39659C9.62549 10.2812 10.3451 10.9998 11.2297 10.9998C12.1142 10.9998 12.8338 10.2812 12.8338 9.39659C12.8338 8.51109 12.1142 7.7915 11.2297 7.7915M11.2297 12.3748C9.58699 12.3748 8.25049 11.0393 8.25049 9.39659C8.25049 7.753 9.58699 6.4165 11.2297 6.4165C12.8723 6.4165 14.2088 7.753 14.2088 9.39659C14.2088 11.0393 12.8723 12.3748 11.2297 12.3748" fill="#FC00FF"/>
<mask id="mask0_0_651" style="mask-type:alpha" maskUnits="userSpaceOnUse" x="3" y="1" width="16" height="19">
<path fill-rule="evenodd" clip-rule="evenodd" d="M3.66669 1.83325H18.7912V19.7083H3.66669V1.83325Z" fill="white"/>
</mask>
<g mask="url(#mask0_0_651)">
<path fill-rule="evenodd" clip-rule="evenodd" d="M11.2287 3.20825C7.81687 3.20825 5.0412 6.0105 5.0412 9.4535C5.0412 13.8343 10.1965 18.1023 11.2287 18.3296C12.2609 18.1013 17.4162 13.8333 17.4162 9.4535C17.4162 6.0105 14.6405 3.20825 11.2287 3.20825V3.20825ZM11.2287 19.7083C9.5842 19.7083 3.6662 14.6189 3.6662 9.4535C3.6662 5.2515 7.05878 1.83325 11.2287 1.83325C15.3986 1.83325 18.7912 5.2515 18.7912 9.4535C18.7912 14.6189 12.8732 19.7083 11.2287 19.7083V19.7083Z" fill="#FC00FF"/>
</g>
</svg>
