<svg width="22" height="22" viewBox="0 0 22 22" fill="none" xmlns="http://www.w3.org/2000/svg">
<path d="M18.3333 3.66675H3.66666C2.65833 3.66675 1.84249 4.49175 1.84249 5.50008L1.83333 16.5001C1.83333 17.5084 2.65833 18.3334 3.66666 18.3334H18.3333C19.3417 18.3334 20.1667 17.5084 20.1667 16.5001V5.50008C20.1667 4.49175 19.3417 3.66675 18.3333 3.66675ZM17.4167 16.5001H4.58333C4.07916 16.5001 3.66666 16.0876 3.66666 15.5834V7.33341L10.0283 11.3117C10.6242 11.6876 11.3758 11.6876 11.9717 11.3117L18.3333 7.33341V15.5834C18.3333 16.0876 17.9208 16.5001 17.4167 16.5001ZM11 10.0834L3.66666 5.50008H18.3333L11 10.0834Z" fill="#FC00FF"/>
</svg>
