<svg width="64" height="64" viewBox="0 0 64 64" fill="none" xmlns="http://www.w3.org/2000/svg">
<path opacity="0.4" d="M43.306 5.33333H20.6927C13.3327 5.33333 10.666 7.99999 10.666 15.4933V48.5067C10.666 56 13.3327 58.6667 20.6927 58.6667H43.2793C50.666 58.6667 53.3327 56 53.3327 48.5067V15.4933C53.3327 7.99999 50.666 5.33333 43.306 5.33333Z" fill="#5727A3"/>
<path d="M37.3327 16.6667H26.666C25.5727 16.6667 24.666 15.76 24.666 14.6667C24.666 13.5733 25.5727 12.6667 26.666 12.6667H37.3327C38.426 12.6667 39.3327 13.5733 39.3327 14.6667C39.3327 15.76 38.426 16.6667 37.3327 16.6667Z" fill="#5727A3"/>
<path d="M32.0007 51.4667C34.578 51.4667 36.6673 49.3773 36.6673 46.8C36.6673 44.2227 34.578 42.1333 32.0007 42.1333C29.4233 42.1333 27.334 44.2227 27.334 46.8C27.334 49.3773 29.4233 51.4667 32.0007 51.4667Z" fill="#5727A3"/>
</svg>
