<svg width="64" height="64" viewBox="0 0 64 64" fill="none" xmlns="http://www.w3.org/2000/svg">
<path opacity="0.4" d="M58.5873 17.0933V34.4267H5.33398V17.0933C5.33398 10.6133 10.614 5.33333 17.094 5.33333H46.8273C53.3073 5.33333 58.5873 10.6133 58.5873 17.0933Z" fill="#5727A3"/>
<path d="M5.33398 34.4533V34.9867C5.33398 41.4933 10.614 46.7467 17.094 46.7467H27.334C28.8007 46.7467 30.0007 47.9467 30.0007 49.4133V52C30.0007 53.4667 28.8007 54.6667 27.334 54.6667H20.8807C19.7873 54.6667 18.8807 55.5733 18.8807 56.6667C18.8807 57.76 19.7607 58.6667 20.8807 58.6667H43.1473C44.2407 58.6667 45.1473 57.76 45.1473 56.6667C45.1473 55.5733 44.2407 54.6667 43.1473 54.6667H36.694C35.2273 54.6667 34.0273 53.4667 34.0273 52V49.4133C34.0273 47.9467 35.2273 46.7467 36.694 46.7467H46.854C53.3607 46.7467 58.614 41.4667 58.614 34.9867V34.4533H5.33398Z" fill="#5727A3"/>
</svg>
