<svg width="40" height="40" viewBox="0 0 40 40" fill="none" xmlns="http://www.w3.org/2000/svg">
<path opacity="0.4" d="M19.1673 35C27.9118 35 35.0007 27.9112 35.0007 19.1667C35.0007 10.4222 27.9118 3.33337 19.1673 3.33337C10.4228 3.33337 3.33398 10.4222 3.33398 19.1667C3.33398 27.9112 10.4228 35 19.1673 35Z" fill="#5727A3"/>
<path d="M35.5003 36.6667C35.2003 36.6667 34.9003 36.55 34.6836 36.3333L31.5836 33.2333C31.1336 32.7833 31.1336 32.05 31.5836 31.5833C32.0336 31.1333 32.7669 31.1333 33.2336 31.5833L36.3336 34.6833C36.7836 35.1333 36.7836 35.8667 36.3336 36.3333C36.1003 36.55 35.8003 36.6667 35.5003 36.6667Z" fill="#5727A3"/>
</svg>
