<svg width="40" height="40" viewBox="0 0 40 40" fill="none" xmlns="http://www.w3.org/2000/svg">
<path d="M25.6509 8.68337L28.0009 13.3834C28.3175 14.0334 29.1675 14.65 29.8842 14.7834L34.1342 15.4834C36.8509 15.9334 37.4842 17.9 35.5342 19.8667L32.2175 23.1834C31.6675 23.7334 31.3509 24.8167 31.5342 25.6L32.4842 29.7C33.2342 32.9334 31.5009 34.2 28.6509 32.5L24.6675 30.1334C23.9509 29.7 22.7509 29.7 22.0342 30.1334L18.0509 32.5C15.2009 34.1834 13.4676 32.9334 14.2176 29.7L15.1676 25.6C15.3509 24.8334 15.0342 23.75 14.4842 23.1834L11.1676 19.8667C9.21758 17.9167 9.85091 15.95 12.5676 15.4834L16.8176 14.7834C17.5342 14.6667 18.3842 14.0334 18.7009 13.3834L21.0509 8.68337C22.3009 6.13337 24.3676 6.13337 25.6509 8.68337Z" fill="#5727A3"/>
<path opacity="0.4" d="M13.334 9.58337H3.33398C2.65065 9.58337 2.08398 9.01671 2.08398 8.33337C2.08398 7.65004 2.65065 7.08337 3.33398 7.08337H13.334C14.0173 7.08337 14.584 7.65004 14.584 8.33337C14.584 9.01671 14.0173 9.58337 13.334 9.58337Z" fill="#5727A3"/>
<path opacity="0.4" d="M8.33398 32.9167H3.33398C2.65065 32.9167 2.08398 32.3501 2.08398 31.6667C2.08398 30.9834 2.65065 30.4167 3.33398 30.4167H8.33398C9.01732 30.4167 9.58398 30.9834 9.58398 31.6667C9.58398 32.3501 9.01732 32.9167 8.33398 32.9167Z" fill="#5727A3"/>
<path opacity="0.4" d="M5.00065 21.25H3.33398C2.65065 21.25 2.08398 20.6833 2.08398 20C2.08398 19.3167 2.65065 18.75 3.33398 18.75H5.00065C5.68398 18.75 6.25065 19.3167 6.25065 20C6.25065 20.6833 5.68398 21.25 5.00065 21.25Z" fill="#5727A3"/>
</svg>
