<svg width="40" height="40" viewBox="0 0 40 40" fill="none" xmlns="http://www.w3.org/2000/svg">
<path d="M33.3329 32.1H18.2163C17.4663 32.1 16.8496 31.4834 16.8496 30.7334C16.8496 29.9834 17.4663 29.3667 18.2163 29.3667H33.3329C34.0829 29.3667 34.6996 29.9834 34.6996 30.7334C34.6996 31.5 34.0829 32.1 33.3329 32.1Z" fill="#5727A3"/>
<path d="M33.3329 21.6166H18.2163C17.4663 21.6166 16.8496 21 16.8496 20.25C16.8496 19.5 17.4663 18.8833 18.2163 18.8833H33.3329C34.0829 18.8833 34.6996 19.5 34.6996 20.25C34.6996 21 34.0829 21.6166 33.3329 21.6166Z" fill="#5727A3"/>
<path d="M33.3329 11.1166H18.2163C17.4663 11.1166 16.8496 10.5 16.8496 9.74997C16.8496 8.99997 17.4663 8.3833 18.2163 8.3833H33.3329C34.0829 8.3833 34.6996 8.99997 34.6996 9.74997C34.6996 10.5 34.0829 11.1166 33.3329 11.1166Z" fill="#5727A3"/>
<path opacity="0.4" d="M8.18411 13.3834C7.81745 13.3834 7.46745 13.2334 7.21745 12.9834L5.70078 11.4667C5.16745 10.9334 5.16745 10.0667 5.70078 9.53337C6.23411 9.00003 7.10078 9.00003 7.63411 9.53337L8.18411 10.0834L11.7508 6.5167C12.2841 5.98337 13.1508 5.98337 13.6841 6.5167C14.2174 7.05003 14.2174 7.9167 13.6841 8.45003L9.15078 12.9834C8.88411 13.2334 8.55078 13.3834 8.18411 13.3834Z" fill="#5727A3"/>
<path opacity="0.4" d="M8.18411 23.8834C7.83411 23.8834 7.48411 23.75 7.21745 23.4834L5.70078 21.9667C5.16745 21.4334 5.16745 20.5667 5.70078 20.0334C6.23411 19.5 7.10078 19.5 7.63411 20.0334L8.18411 20.5834L11.7508 17.0167C12.2841 16.4834 13.1508 16.4834 13.6841 17.0167C14.2174 17.55 14.2174 18.4167 13.6841 18.95L9.15078 23.4834C8.88411 23.75 8.53411 23.8834 8.18411 23.8834Z" fill="#5727A3"/>
<path opacity="0.4" d="M8.18411 33.8834C7.83411 33.8834 7.48411 33.75 7.21745 33.4834L5.70078 31.9667C5.16745 31.4334 5.16745 30.5667 5.70078 30.0334C6.23411 29.5 7.10078 29.5 7.63411 30.0334L8.18411 30.5834L11.7508 27.0167C12.2841 26.4834 13.1508 26.4834 13.6841 27.0167C14.2174 27.55 14.2174 28.4167 13.6841 28.95L9.15078 33.4834C8.88411 33.75 8.53411 33.8834 8.18411 33.8834Z" fill="#5727A3"/>
</svg>
